<svg width="25" height="25" viewBox="0 0 25 25" fill="none" xmlns="http://www.w3.org/2000/svg">
<path d="M13.4624 2.9925C13.9824 2.6175 14.5874 2.5 14.9999 2.5H16.8074C17.3737 2.49995 17.9293 2.65377 18.4149 2.945L20.6437 4.2825C20.8286 4.39358 20.9816 4.55061 21.0878 4.73833C21.194 4.92605 21.2499 5.13806 21.2499 5.35375V6.875C21.2499 7.37228 21.0524 7.84919 20.7008 8.20083C20.3491 8.55246 19.8722 8.75 19.3749 8.75H18.7499V18.7975C19.2762 18.8787 19.8037 19.075 20.2437 19.4412C20.8812 19.9713 21.2499 20.7875 21.2499 21.875C21.2499 22.0408 21.1841 22.1997 21.0669 22.3169C20.9497 22.4342 20.7907 22.5 20.6249 22.5H6.24993C5.46319 22.5001 4.69635 22.2527 4.05795 21.7929C3.41955 21.3332 2.94192 20.6842 2.69267 19.938C2.44343 19.1918 2.43519 18.3861 2.66912 17.635C2.90306 16.8838 3.36731 16.2252 3.99618 15.7525C4.12886 15.6568 4.29378 15.6169 4.45553 15.6414C4.61729 15.666 4.76297 15.7529 4.86132 15.8837C4.95966 16.0144 5.00282 16.1785 4.98153 16.3407C4.96023 16.5029 4.87619 16.6503 4.74743 16.7513C4.32801 17.0664 4.01835 17.5054 3.86229 18.0063C3.70622 18.5071 3.71167 19.0444 3.87785 19.542C4.04403 20.0395 4.36253 20.4722 4.78825 20.7788C5.21397 21.0853 5.72533 21.2502 6.24993 21.25C6.60993 21.25 6.83743 21.1625 6.98743 21.0625C7.13574 20.9602 7.25433 20.8205 7.33118 20.6575C7.43158 20.4521 7.48901 20.2284 7.49993 20V19.9438L7.50493 19.8062C7.54638 19.0827 7.65519 18.3646 7.82993 17.6612C8.15868 16.3488 8.82493 14.6663 10.1824 13.3075C12.4874 11.0037 12.4999 7.91375 12.4999 6.875V5C12.4999 4.04625 12.9124 3.39 13.4624 2.9925ZM13.6549 8.625C13.4612 10.195 12.8687 12.39 11.0674 14.1925C9.92493 15.3337 9.34118 16.7763 9.04368 17.9638C8.88869 18.5864 8.79161 19.222 8.75368 19.8625C8.75201 19.8987 8.75076 19.935 8.74993 19.9713V20.0413L8.74493 20.125C8.7173 20.5172 8.61102 20.8998 8.43243 21.25H16.1487C16.0237 20.85 15.7699 20.4387 15.3337 20.21C15.0361 20.0625 14.7069 19.9904 14.3749 20H13.1249C12.9592 20 12.8002 19.9342 12.683 19.8169C12.5658 19.6997 12.4999 19.5408 12.4999 19.375C12.4999 19.2092 12.5658 19.0503 12.683 18.9331C12.8002 18.8158 12.9592 18.75 13.1249 18.75H14.3749C14.5949 18.75 14.8024 18.7675 14.9999 18.8V15.625C14.9999 15.4592 15.0658 15.3003 15.183 15.1831C15.3002 15.0658 15.4592 15 15.6249 15C15.7907 15 15.9497 15.0658 16.0669 15.1831C16.1841 15.3003 16.2499 15.4592 16.2499 15.625V19.31C16.9749 19.8325 17.3087 20.61 17.4349 21.25H19.9349C19.8412 20.84 19.6537 20.5763 19.4437 20.4025C19.1224 20.1338 18.6562 20 18.1249 20C17.9592 20 17.8002 19.9342 17.683 19.8169C17.5658 19.6997 17.4999 19.5408 17.4999 19.375V8.125C17.4999 7.95924 17.5658 7.80027 17.683 7.68306C17.8002 7.56585 17.9592 7.5 18.1249 7.5H19.3749C19.5407 7.5 19.6997 7.43415 19.8169 7.31694C19.9341 7.19973 19.9999 7.04076 19.9999 6.875V5.35375L17.7724 4.01625C17.4808 3.84168 17.1473 3.74965 16.8074 3.75H14.9999C14.7874 3.75 14.4549 3.81875 14.1937 4.0075C13.9624 4.1725 13.7499 4.45375 13.7499 5V6.875C13.7499 6.98375 13.7874 7.16 13.8824 7.29125C13.9537 7.39125 14.0787 7.5 14.3749 7.5C14.6712 7.5 14.7962 7.39 14.8674 7.29125C14.9507 7.16811 14.9967 7.0236 14.9999 6.875C14.9999 6.70924 15.0658 6.55027 15.183 6.43306C15.3002 6.31585 15.4592 6.25 15.6249 6.25C15.7907 6.25 15.9497 6.31585 16.0669 6.43306C16.1841 6.55027 16.2499 6.70924 16.2499 6.875C16.2499 7.18375 16.1624 7.6325 15.8824 8.02125C15.5787 8.4425 15.0787 8.75 14.3749 8.75C14.1293 8.75234 13.8854 8.70999 13.6549 8.625Z" fill="#7B5BFB"/>
</svg>
