<svg width="24" height="24" viewBox="0 0 24 24" fill="none" xmlns="http://www.w3.org/2000/svg">
<path d="M21.9966 11.9999L21.9927 12.2796C21.8444 17.6705 17.423 21.9999 11.9966 21.9999C6.48658 21.9999 1.99658 17.5199 1.99658 11.9999C1.99658 6.48988 6.48658 1.99988 11.9966 1.99988C17.5166 1.99988 21.9966 6.48988 21.9966 11.9999ZM15.9966 13.9799C16.2966 13.6799 16.2966 13.2099 15.9966 12.9199L12.5266 9.42988C12.3866 9.28988 12.1966 9.20988 11.9966 9.20988C11.7966 9.20988 11.6066 9.28988 11.4666 9.42988L7.99658 12.9199C7.84658 13.0599 7.77658 13.2499 7.77658 13.4399C7.77658 13.6399 7.84658 13.8299 7.99658 13.9799C8.29658 14.2699 8.76658 14.2699 9.05658 13.9699L11.9966 11.0199L14.9366 13.9699C15.2266 14.2699 15.7066 14.2699 15.9966 13.9799Z" fill="#7B5BFB"/>
</svg>
