<svg width="16" height="18" viewBox="0 0 16 18" fill="none" xmlns="http://www.w3.org/2000/svg">
<path d="M13.625 4.12505L13.16 11.6438C13.0415 13.5645 12.9823 14.5253 12.5 15.216C12.2619 15.5574 11.9554 15.8455 11.6 16.062C10.8822 16.5 9.92 16.5 7.9955 16.5C6.068 16.5 5.10425 16.5 4.385 16.0613C4.02942 15.8443 3.72291 15.5557 3.485 15.2138C3.0035 14.5223 2.945 13.56 2.8295 11.6363L2.375 4.12505M1.25 4.12505H14.75M11.042 4.12505L10.5298 3.06905C10.19 2.36705 10.0198 2.0168 9.7265 1.7978C9.66136 1.74928 9.59238 1.70614 9.52025 1.6688C9.1955 1.50005 8.8055 1.50005 8.02625 1.50005C7.22675 1.50005 6.827 1.50005 6.49625 1.67555C6.42314 1.7147 6.3534 1.75986 6.28775 1.81055C5.9915 2.0378 5.82575 2.40155 5.49425 3.1283L5.03975 4.12505M6.125 12.375V7.87504M9.875 12.375V7.87504" stroke="#EB3E3E" stroke-width="1.5" stroke-linecap="round" stroke-linejoin="round"/>
</svg>
