<svg width="22" height="17" viewBox="0 0 22 17" fill="none" xmlns="http://www.w3.org/2000/svg">
<path fill-rule="evenodd" clip-rule="evenodd" d="M7.2395 1C6.55315 1 6.01517 1.41045 5.6824 1.90273C5.34546 2.39909 5.15966 3.04682 5.15966 3.72727C5.15966 4.40909 5.34546 5.05545 5.6824 5.55182C6.01517 6.04273 6.55315 6.45455 7.2395 6.45455C7.92584 6.45455 8.46382 6.04409 8.7966 5.55182C9.13353 5.05545 9.31933 4.40773 9.31933 3.72727C9.31933 3.04545 9.13353 2.39909 8.7966 1.90273C8.46382 1.41182 7.92584 1 7.2395 1ZM14.1723 1C13.4859 1 12.9479 1.41045 12.6152 1.90273C12.2782 2.39909 12.0924 3.04682 12.0924 3.72727C12.0924 4.40909 12.2782 5.05545 12.6152 5.55182C12.9479 6.04273 13.4859 6.45455 14.1723 6.45455C14.8586 6.45455 15.3966 6.04409 15.7294 5.55182C16.0663 5.05545 16.2521 4.40773 16.2521 3.72727C16.2521 3.04545 16.0663 2.39909 15.7294 1.90273C15.3966 1.41182 14.8586 1 14.1723 1ZM3.07983 7.13636C2.39349 7.13636 1.8555 7.54682 1.52273 8.03909C1.1858 8.53545 1 9.18318 1 9.86364C1 10.5455 1.1858 11.1918 1.52273 11.6882C1.8555 12.1791 2.39349 12.5909 3.07983 12.5909C3.76618 12.5909 4.30416 12.1805 4.63693 11.6882C4.97387 11.1918 5.15966 10.5441 5.15966 9.86364C5.15966 9.18182 4.97387 8.53545 4.63693 8.03909C4.30416 7.54818 3.76618 7.13636 3.07983 7.13636ZM10.7059 7.13636C9.04202 7.13636 7.80937 8.01455 7.02181 9.10409C6.24395 10.1773 5.85294 11.5095 5.85294 12.5909C5.85294 13.8509 6.62248 14.7264 7.56672 15.2527C8.49572 15.7709 9.66042 16 10.7059 16C11.75 16 12.9161 15.7723 13.845 15.2527C14.7879 14.7264 15.5588 13.8509 15.5588 12.5909C15.5588 11.5095 15.1678 10.1773 14.39 9.10409C13.6038 8.01318 12.3711 7.13636 10.7059 7.13636ZM18.3319 7.13636C17.6456 7.13636 17.1076 7.54682 16.7748 8.03909C16.4379 8.53545 16.2521 9.18318 16.2521 9.86364C16.2521 10.5455 16.4379 11.1918 16.7748 11.6882C17.1076 12.1791 17.6456 12.5909 18.3319 12.5909C19.0183 12.5909 19.5563 12.1805 19.889 11.6882C20.226 11.1918 20.4118 10.5441 20.4118 9.86364C20.4118 9.18182 20.226 8.53545 19.889 8.03909C19.5563 7.54818 19.0183 7.13636 18.3319 7.13636Z" stroke="#A0510B" stroke-width="1.5"/>
</svg>
