<svg width="15" height="16" viewBox="0 0 15 16" fill="none" xmlns="http://www.w3.org/2000/svg">
<path d="M8.77009 0.394C9.18609 0.094 9.67009 8.55981e-09 10.0001 8.55981e-09H11.4461C11.8991 -3.74721e-05 12.3436 0.123012 12.7321 0.356L14.5151 1.426C14.663 1.51487 14.7854 1.64049 14.8704 1.79066C14.9554 1.94084 15.0001 2.11045 15.0001 2.283V3.5C15.0001 3.89782 14.8421 4.27936 14.5608 4.56066C14.2794 4.84196 13.8979 5 13.5001 5H13.0001V13.038C13.4211 13.103 13.8431 13.26 14.1951 13.553C14.7051 13.977 15.0001 14.63 15.0001 15.5C15.0001 15.6326 14.9474 15.7598 14.8536 15.8536C14.7599 15.9473 14.6327 16 14.5001 16H3.00009C2.3707 16.0001 1.75723 15.8022 1.24651 15.4344C0.735783 15.0665 0.353683 14.5474 0.154286 13.9504C-0.0451097 13.3535 -0.0517007 12.7089 0.135446 12.108C0.322593 11.507 0.693999 10.9802 1.19709 10.602C1.30324 10.5254 1.43517 10.4935 1.56457 10.5131C1.69398 10.5328 1.81053 10.6023 1.8892 10.7069C1.96788 10.8115 2.0024 10.9428 1.98537 11.0726C1.96833 11.2023 1.9011 11.3203 1.79809 11.401C1.46256 11.6531 1.21483 12.0043 1.08998 12.405C0.965124 12.8057 0.96948 13.2355 1.10243 13.6336C1.23537 14.0316 1.49017 14.3778 1.83075 14.623C2.17132 14.8683 2.58041 15.0001 3.00009 15C3.28809 15 3.47009 14.93 3.59009 14.85C3.70874 14.7681 3.80361 14.6564 3.86509 14.526C3.94541 14.3617 3.99135 14.1827 4.00009 14V13.955L4.00409 13.845C4.03725 13.2662 4.1243 12.6917 4.26409 12.129C4.52709 11.079 5.06009 9.733 6.14609 8.646C7.99009 6.803 8.00009 4.331 8.00009 3.5V2C8.00009 1.237 8.33009 0.712 8.77009 0.394ZM8.92409 4.9C8.76909 6.156 8.29509 7.912 6.85409 9.354C5.94009 10.267 5.47309 11.421 5.23509 12.371C5.1111 12.8691 5.03344 13.3776 5.00309 13.89C5.00175 13.919 5.00075 13.948 5.00009 13.977V14.033L4.99609 14.1C4.97398 14.4137 4.88896 14.7198 4.74609 15H10.9191C10.8191 14.68 10.6161 14.351 10.2671 14.168C10.029 14.05 9.76566 13.9923 9.50009 14H8.50009C8.36749 14 8.24031 13.9473 8.14654 13.8536C8.05277 13.7598 8.00009 13.6326 8.00009 13.5C8.00009 13.3674 8.05277 13.2402 8.14654 13.1464C8.24031 13.0527 8.36749 13 8.50009 13H9.50009C9.67609 13 9.84209 13.014 10.0001 13.04V10.5C10.0001 10.3674 10.0528 10.2402 10.1465 10.1464C10.2403 10.0527 10.3675 10 10.5001 10C10.6327 10 10.7599 10.0527 10.8536 10.1464C10.9474 10.2402 11.0001 10.3674 11.0001 10.5V13.448C11.5801 13.866 11.8471 14.488 11.9481 15H13.9481C13.8731 14.672 13.7231 14.461 13.5551 14.322C13.2981 14.107 12.9251 14 12.5001 14C12.3675 14 12.2403 13.9473 12.1465 13.8536C12.0528 13.7598 12.0001 13.6326 12.0001 13.5V4.5C12.0001 4.36739 12.0528 4.24021 12.1465 4.14645C12.2403 4.05268 12.3675 4 12.5001 4H13.5001C13.6327 4 13.7599 3.94732 13.8536 3.85355C13.9474 3.75979 14.0001 3.63261 14.0001 3.5V2.283L12.2181 1.213C11.9848 1.07335 11.718 0.999724 11.4461 1H10.0001C9.83009 1 9.56409 1.055 9.35509 1.206C9.17009 1.338 9.00009 1.563 9.00009 2V3.5C9.00009 3.587 9.03009 3.728 9.10609 3.833C9.16309 3.913 9.26309 4 9.50009 4C9.73709 4 9.83709 3.912 9.89409 3.833C9.96068 3.73449 9.99748 3.61888 10.0001 3.5C10.0001 3.36739 10.0528 3.24021 10.1465 3.14645C10.2403 3.05268 10.3675 3 10.5001 3C10.6327 3 10.7599 3.05268 10.8536 3.14645C10.9474 3.24021 11.0001 3.36739 11.0001 3.5C11.0001 3.747 10.9301 4.106 10.7061 4.417C10.4631 4.754 10.0631 5 9.50009 5C9.30362 5.00187 9.10844 4.96799 8.92409 4.9Z" fill="#A0510B"/>
</svg>
