<svg width="22" height="22" viewBox="0 0 22 22" fill="none" xmlns="http://www.w3.org/2000/svg">
<path fill-rule="evenodd" clip-rule="evenodd" d="M15.6994 9.89608C14.6421 11.4388 12.6607 14.0268 11.2708 14.0268C9.88084 14.0268 7.89942 11.4388 6.84209 9.89608C6.58859 9.52558 6.68284 9.01967 7.05334 8.76725C7.42167 8.51375 7.93084 8.60908 8.18217 8.97742C9.36084 10.6967 10.8201 12.2978 11.3033 12.4029C11.7225 12.2978 13.1818 10.6967 14.3604 8.97742C14.6118 8.60908 15.1177 8.51375 15.4893 8.76725C15.8587 9.01967 15.9529 9.52558 15.6994 9.89608ZM11.2708 0.4375C3.47292 0.4375 0.708252 3.20108 0.708252 11C0.708252 18.7978 3.47292 21.5625 11.2708 21.5625C19.0686 21.5625 21.8333 18.7978 21.8333 11C21.8333 3.20108 19.0686 0.4375 11.2708 0.4375Z" fill="white"/>
</svg>
