<svg width="17" height="17" viewBox="0 0 17 17" fill="none" xmlns="http://www.w3.org/2000/svg">
<path d="M15.4911 14.5841C15.9785 14.5841 16.375 14.9857 16.375 15.4795C16.375 15.9743 15.9785 16.375 15.4911 16.375H10.4947C10.0073 16.375 9.61078 15.9743 9.61078 15.4795C9.61078 14.9857 10.0073 14.5841 10.4947 14.5841H15.4911ZM12.0261 1.23668L13.3168 2.26194C13.846 2.6758 14.1988 3.22135 14.3196 3.79512C14.4588 4.42626 14.3103 5.04612 13.8924 5.58226L6.20435 15.5244C5.85151 15.9759 5.33155 16.2299 4.77444 16.2393L1.71035 16.2769C1.54321 16.2769 1.40394 16.164 1.3668 16.0041L0.670411 12.9848C0.549704 12.4298 0.670411 11.8561 1.02325 11.414L6.47362 4.35948C6.56647 4.24661 6.7336 4.22873 6.84502 4.31245L9.13845 6.13721C9.28701 6.25949 9.49128 6.32533 9.70484 6.29712C10.1598 6.24068 10.4662 5.82681 10.4198 5.38473C10.3919 5.15899 10.2805 4.97087 10.132 4.82978C10.0855 4.79215 7.90353 3.04264 7.90353 3.04264C7.76425 2.92976 7.73639 2.72283 7.84782 2.58268L8.71133 1.46243C9.50985 0.43717 10.9026 0.343109 12.0261 1.23668Z" fill="#7B5BFB"/>
</svg>
