<svg width="20" height="20" viewBox="0 0 20 20" fill="none" xmlns="http://www.w3.org/2000/svg">
<path fill-rule="evenodd" clip-rule="evenodd" d="M4.16675 16.6668C3.50371 16.6668 2.86782 16.4034 2.39898 15.9346C1.93014 15.4658 1.66675 14.8299 1.66675 14.1668V5.8335C1.66675 5.17046 1.93014 4.53457 2.39898 4.06573C2.86782 3.59689 3.50371 3.3335 4.16675 3.3335H15.8334C16.4965 3.3335 17.1323 3.59689 17.6012 4.06573C18.07 4.53457 18.3334 5.17046 18.3334 5.8335V14.1668C18.3334 14.8299 18.07 15.4658 17.6012 15.9346C17.1323 16.4034 16.4965 16.6668 15.8334 16.6668H4.16675ZM6.35425 6.85016C6.26936 6.77768 6.17077 6.72298 6.06434 6.68933C5.95791 6.65568 5.8458 6.64375 5.73467 6.65426C5.62354 6.66476 5.51566 6.69749 5.41742 6.75049C5.31918 6.8035 5.23259 6.8757 5.16279 6.96281C5.09299 7.04992 5.0414 7.15016 5.01109 7.25759C4.98078 7.36502 4.97236 7.47745 4.98633 7.58819C5.0003 7.69894 5.03638 7.80575 5.09242 7.90229C5.14847 7.99883 5.22333 8.08312 5.31258 8.15016L8.43758 10.651C8.88098 11.006 9.43206 11.1994 10.0001 11.1994C10.5681 11.1994 11.1192 11.006 11.5626 10.651L14.6876 8.151C14.773 8.0826 14.8442 7.99804 14.897 7.90214C14.9498 7.80624 14.9832 7.70089 14.9952 7.59209C15.0073 7.48329 14.9978 7.37318 14.9673 7.26804C14.9369 7.1629 14.886 7.0648 14.8176 6.97933C14.7492 6.89386 14.6646 6.8227 14.5687 6.76991C14.4728 6.71712 14.3675 6.68374 14.2587 6.67167C14.1499 6.6596 14.0398 6.66907 13.9346 6.69956C13.8295 6.73004 13.7314 6.78093 13.6459 6.84933L10.5209 9.34933C10.3731 9.46767 10.1894 9.53214 10.0001 9.53214C9.81074 9.53214 9.62705 9.46767 9.47925 9.34933L6.35425 6.84933V6.85016Z" fill="#7B5BFB"/>
</svg>
