<svg width="24" height="19" viewBox="0 0 24 19" fill="none" xmlns="http://www.w3.org/2000/svg">
<path fill-rule="evenodd" clip-rule="evenodd" d="M8.07143 1C7.29357 1 6.68386 1.46518 6.30671 2.02309C5.92486 2.58564 5.71429 3.31973 5.71429 4.09091C5.71429 4.86364 5.92486 5.59618 6.30671 6.15873C6.68386 6.71509 7.29357 7.18182 8.07143 7.18182C8.84929 7.18182 9.459 6.71664 9.83614 6.15873C10.218 5.59618 10.4286 4.86209 10.4286 4.09091C10.4286 3.31818 10.218 2.58564 9.83614 2.02309C9.459 1.46673 8.84929 1 8.07143 1ZM15.9286 1C15.1507 1 14.541 1.46518 14.1639 2.02309C13.782 2.58564 13.5714 3.31973 13.5714 4.09091C13.5714 4.86364 13.782 5.59618 14.1639 6.15873C14.541 6.71509 15.1507 7.18182 15.9286 7.18182C16.7064 7.18182 17.3161 6.71664 17.6933 6.15873C18.0751 5.59618 18.2857 4.86209 18.2857 4.09091C18.2857 3.31818 18.0751 2.58564 17.6933 2.02309C17.3161 1.46673 16.7064 1 15.9286 1ZM3.35714 7.95455C2.57929 7.95455 1.96957 8.41973 1.59243 8.97764C1.21057 9.54018 1 10.2743 1 11.0455C1 11.8182 1.21057 12.5507 1.59243 13.1133C1.96957 13.6696 2.57929 14.1364 3.35714 14.1364C4.135 14.1364 4.74471 13.6712 5.12186 13.1133C5.50371 12.5507 5.71429 11.8166 5.71429 11.0455C5.71429 10.2727 5.50371 9.54018 5.12186 8.97764C4.74471 8.42127 4.135 7.95455 3.35714 7.95455ZM12 7.95455C10.1143 7.95455 8.71729 8.94982 7.82471 10.1846C6.94314 11.4009 6.5 12.9108 6.5 14.1364C6.5 15.5644 7.37214 16.5565 8.44229 17.1531C9.49514 17.7404 10.8151 18 12 18C13.1833 18 14.5049 17.7419 15.5577 17.1531C16.6263 16.5565 17.5 15.5644 17.5 14.1364C17.5 12.9108 17.0569 11.4009 16.1753 10.1846C15.2843 8.94827 13.8873 7.95455 12 7.95455ZM20.6429 7.95455C19.865 7.95455 19.2553 8.41973 18.8781 8.97764C18.4963 9.54018 18.2857 10.2743 18.2857 11.0455C18.2857 11.8182 18.4963 12.5507 18.8781 13.1133C19.2553 13.6696 19.865 14.1364 20.6429 14.1364C21.4207 14.1364 22.0304 13.6712 22.4076 13.1133C22.7894 12.5507 23 11.8166 23 11.0455C23 10.2727 22.7894 9.54018 22.4076 8.97764C22.0304 8.42127 21.4207 7.95455 20.6429 7.95455Z" stroke="#7B5BFB" stroke-width="1.5"/>
</svg>
