<svg width="29" height="27" viewBox="0 0 29 27" fill="none" xmlns="http://www.w3.org/2000/svg">
<path d="M3.5 21.375V24.125H25.5V21.375H3.5ZM3.5 6.25H6.525C6.41042 6.04375 6.33617 5.82604 6.30225 5.59688C6.26833 5.36771 6.25092 5.12708 6.25 4.875C6.25 3.72917 6.65104 2.75521 7.45312 1.95312C8.25521 1.15104 9.22917 0.75 10.375 0.75C11.0625 0.75 11.6987 0.927833 12.2835 1.2835C12.8683 1.63917 13.378 2.08008 13.8125 2.60625L14.5 3.5L15.1875 2.60625C15.6 2.05625 16.1042 1.60938 16.7 1.26562C17.2958 0.921875 17.9375 0.75 18.625 0.75C19.7708 0.75 20.7448 1.15104 21.5469 1.95312C22.349 2.75521 22.75 3.72917 22.75 4.875C22.75 5.12708 22.7326 5.36771 22.6978 5.59688C22.6629 5.82604 22.5887 6.04375 22.475 6.25H25.5C26.2563 6.25 26.9034 6.5195 27.4415 7.0585C27.9796 7.5975 28.2491 8.24467 28.25 9V24.125C28.25 24.8813 27.981 25.5289 27.4429 26.0679C26.9048 26.6069 26.2572 26.8759 25.5 26.875H3.5C2.74375 26.875 2.09658 26.606 1.5585 26.0679C1.02042 25.5298 0.750917 24.8822 0.75 24.125V9C0.75 8.24375 1.0195 7.59658 1.5585 7.0585C2.0975 6.52042 2.74467 6.25092 3.5 6.25ZM3.5 17.25H25.5V9H18.4875L21.375 12.9188L19.175 14.5L14.5 8.175L9.825 14.5L7.625 12.9188L10.4438 9H3.5V17.25ZM10.375 6.25C10.7646 6.25 11.0914 6.118 11.3554 5.854C11.6194 5.59 11.7509 5.26367 11.75 4.875C11.75 4.48542 11.618 4.15908 11.354 3.896C11.09 3.63292 10.7637 3.50092 10.375 3.5C9.98542 3.5 9.65908 3.632 9.396 3.896C9.13292 4.16 9.00092 4.48633 9 4.875C9 5.26458 9.132 5.59137 9.396 5.85537C9.66 6.11937 9.98633 6.25092 10.375 6.25ZM18.625 6.25C19.0146 6.25 19.3414 6.118 19.6054 5.854C19.8694 5.59 20.0009 5.26367 20 4.875C20 4.48542 19.868 4.15908 19.604 3.896C19.34 3.63292 19.0137 3.50092 18.625 3.5C18.2354 3.5 17.9091 3.632 17.646 3.896C17.3829 4.16 17.2509 4.48633 17.25 4.875C17.25 5.26458 17.382 5.59137 17.646 5.85537C17.91 6.11937 18.2363 6.25092 18.625 6.25Z" fill="#FFFFFF"/>
</svg>
