<svg width="13" height="13" viewBox="0 0 13 13" fill="none" xmlns="http://www.w3.org/2000/svg">
<path d="M7.70857 0.803626C8.05051 0.572439 8.44835 0.5 8.7196 0.5H9.90819C10.2805 0.499971 10.6459 0.594796 10.9653 0.774342L12.4309 1.59891C12.5524 1.66739 12.653 1.7642 12.7229 1.87993C12.7928 1.99566 12.8295 2.12636 12.8295 2.25934V3.19719C12.8295 3.50376 12.6996 3.79778 12.4684 4.01456C12.2372 4.23134 11.9235 4.35312 11.5965 4.35312H11.1855V10.5474C11.5316 10.5975 11.8785 10.7185 12.1678 10.9443C12.587 11.271 12.8295 11.7742 12.8295 12.4447C12.8295 12.5469 12.7862 12.6449 12.7091 12.7171C12.6321 12.7894 12.5275 12.83 12.4185 12.83H2.96573C2.44838 12.8301 1.94412 12.6776 1.52432 12.3941C1.10451 12.1106 0.790433 11.7106 0.626533 11.2505C0.462633 10.7905 0.457215 10.2938 0.611047 9.8307C0.764878 9.36761 1.07017 8.96161 1.4837 8.67017C1.57095 8.61116 1.6794 8.58657 1.78576 8.60169C1.89213 8.61681 1.98793 8.67043 2.0526 8.75103C2.11727 8.83164 2.14565 8.9328 2.13165 9.0328C2.11765 9.1328 2.06238 9.22367 1.97771 9.2859C1.70191 9.48016 1.49828 9.75084 1.39565 10.0596C1.29303 10.3684 1.29661 10.6996 1.40589 11.0064C1.51517 11.3131 1.72461 11.5799 2.00455 11.7689C2.2845 11.9578 2.62076 12.0595 2.96573 12.0594C3.20246 12.0594 3.35206 12.0054 3.4507 11.9438C3.54822 11.8807 3.62621 11.7946 3.67675 11.6941C3.74277 11.5675 3.78053 11.4295 3.78771 11.2887V11.2541L3.791 11.1693C3.81826 10.7232 3.88981 10.2805 4.00472 9.84691C4.2209 9.03775 4.65902 8.00049 5.55169 7.16282C7.06742 5.74256 7.07564 3.83758 7.07564 3.19719V2.04125C7.07564 1.45326 7.3469 1.04869 7.70857 0.803626ZM7.83515 4.27606C7.70774 5.24397 7.31813 6.59719 6.13365 7.70843C5.38236 8.41201 4.99849 9.30131 4.80286 10.0334C4.70094 10.4172 4.6371 10.8091 4.61216 11.204C4.61106 11.2263 4.61024 11.2487 4.6097 11.271V11.3142L4.60641 11.3658C4.58823 11.6076 4.51835 11.8435 4.40091 12.0594H9.475C9.39281 11.8128 9.22594 11.5592 8.93907 11.4182C8.7434 11.3273 8.5269 11.2828 8.30861 11.2887H7.48663C7.37763 11.2887 7.27309 11.2482 7.19602 11.1759C7.11894 11.1036 7.07564 11.0056 7.07564 10.9034C7.07564 10.8012 7.11894 10.7032 7.19602 10.631C7.27309 10.5587 7.37763 10.5181 7.48663 10.5181H8.30861C8.45328 10.5181 8.58973 10.5289 8.7196 10.5489V8.59156C8.7196 8.48937 8.7629 8.39137 8.83998 8.31911C8.91706 8.24684 9.02159 8.20625 9.13059 8.20625C9.2396 8.20625 9.34413 8.24684 9.42121 8.31911C9.49829 8.39137 9.54159 8.48937 9.54159 8.59156V10.8634C10.0183 11.1855 10.2378 11.6648 10.3208 12.0594H11.9648C11.9031 11.8066 11.7798 11.644 11.6417 11.5369C11.4305 11.3712 11.1239 11.2887 10.7746 11.2887C10.6656 11.2887 10.561 11.2482 10.4839 11.1759C10.4069 11.1036 10.3636 11.0056 10.3636 10.9034V3.96781C10.3636 3.86562 10.4069 3.76762 10.4839 3.69536C10.561 3.6231 10.6656 3.5825 10.7746 3.5825H11.5965C11.7055 3.5825 11.8101 3.5419 11.8872 3.46964C11.9642 3.39738 12.0075 3.29938 12.0075 3.19719V2.25934L10.5428 1.43477C10.351 1.32715 10.1317 1.27041 9.90819 1.27062H8.7196C8.57987 1.27062 8.36122 1.31301 8.18943 1.42937C8.03736 1.5311 7.89762 1.70449 7.89762 2.04125V3.19719C7.89762 3.26423 7.92228 3.37289 7.98475 3.45381C8.03161 3.51546 8.1138 3.5825 8.30861 3.5825C8.50342 3.5825 8.58562 3.51469 8.63247 3.45381C8.6872 3.37789 8.71745 3.2888 8.7196 3.19719C8.7196 3.095 8.7629 2.99699 8.83998 2.92473C8.91706 2.85247 9.02159 2.81187 9.13059 2.81187C9.2396 2.81187 9.34413 2.85247 9.42121 2.92473C9.49829 2.99699 9.54159 3.095 9.54159 3.19719C9.54159 3.38753 9.48405 3.66419 9.29992 3.90385C9.10018 4.16355 8.77139 4.35312 8.30861 4.35312C8.14711 4.35457 7.98668 4.32846 7.83515 4.27606Z" fill="#676767"/>
</svg>
