<svg width="31" height="31" viewBox="0 0 31 31" fill="none" xmlns="http://www.w3.org/2000/svg">
<path d="M2.58325 14.2084L6.20896 10.1306C6.69369 9.58509 7.28848 9.14847 7.95416 8.84947C8.61983 8.55047 9.3413 8.39588 10.071 8.39587H10.3333M2.58325 25.1875H9.68742L14.8541 21.3125C14.8541 21.3125 15.9003 20.606 17.4374 19.375C20.6666 16.7917 17.4374 12.7023 14.2083 14.8542C11.5784 16.607 9.04159 18.0834 9.04159 18.0834" stroke="#7B5BFB" stroke-width="1.5" stroke-linecap="round" stroke-linejoin="round"/>
<path d="M10.3333 17.4375V9.04171C10.3333 8.35656 10.6054 7.69948 11.0899 7.21501C11.5744 6.73055 12.2314 6.45837 12.9166 6.45837H25.8333C26.5184 6.45837 27.1755 6.73055 27.6599 7.21501C28.1444 7.69948 28.4166 8.35656 28.4166 9.04171V16.7917C28.4166 17.4769 28.1444 18.1339 27.6599 18.6184C27.1755 19.1029 26.5184 19.375 25.8333 19.375H17.4374" stroke="#7B5BFB" stroke-width="1.5"/>
<path d="M25.1875 12.9296L25.2004 12.9154M13.5625 12.9296L13.5754 12.9154M19.375 15.5C18.6899 15.5 18.0328 15.2279 17.5483 14.7434C17.0638 14.2589 16.7917 13.6018 16.7917 12.9167C16.7917 12.2316 17.0638 11.5745 17.5483 11.09C18.0328 10.6055 18.6899 10.3334 19.375 10.3334C20.0601 10.3334 20.7172 10.6055 21.2017 11.09C21.6862 11.5745 21.9583 12.2316 21.9583 12.9167C21.9583 13.6018 21.6862 14.2589 21.2017 14.7434C20.7172 15.2279 20.0601 15.5 19.375 15.5Z" stroke="#7B5BFB" stroke-width="1.5" stroke-linecap="round" stroke-linejoin="round"/>
</svg>
