<svg width="175" height="55" viewBox="0 0 175 55" fill="none" xmlns="http://www.w3.org/2000/svg">
<mask id="mask0_358_63" style="mask-type:alpha" maskUnits="userSpaceOnUse" x="-470" y="-151" width="1281" height="206">
<rect x="-470" y="-151" width="1281" height="206" fill="#7B5BFB"/>
</mask>
<g mask="url(#mask0_358_63)">
<path fill-rule="evenodd" clip-rule="evenodd" d="M2.19869 125.681C1.68829 124.499 1.3404 123.18 1.15501 121.724C0.969626 120.268 0.933229 118.726 1.04582 117.098C1.16743 115.436 1.38768 113.675 1.7066 111.813C2.05006 109.995 2.48767 108.093 3.01943 106.109C3.54218 104.158 4.10424 102.127 4.70561 100.017C5.33152 97.9495 5.98773 95.8361 6.67424 93.6767C7.36074 91.5173 8.03047 89.3534 8.68342 87.185C9.37894 84.9919 10.0196 82.8022 10.6055 80.6158C11.2158 78.4721 11.7546 76.3272 12.2218 74.1811C12.6889 72.035 13.0709 69.9382 13.3678 67.8907C13.6647 65.8432 13.8809 63.8282 14.0165 61.8456C14.1857 59.8721 14.291 57.9355 14.3324 56.0358C14.3739 54.1362 14.3638 52.2949 14.3021 50.5118C14.283 48.7041 14.2548 46.93 14.2176 45.1896C14.1715 43.4828 14.1163 41.8096 14.0521 40.1701C14.0214 38.5396 14.0108 36.9685 14.0203 35.4568C14.0387 33.9116 14.0985 32.4134 14.1996 30.9624C14.3342 29.5203 14.5269 28.1299 14.7778 26.7911C15.0376 25.4187 15.3724 24.1024 15.782 22.8422C16.2251 21.5909 16.7599 20.4003 17.3864 19.2703C18.0219 18.1067 18.7535 16.9868 19.5813 15.9108C20.4001 14.8684 21.3105 13.8866 22.3126 12.9654C23.3237 12.0106 24.4097 11.1118 25.5706 10.2692C26.7224 9.46028 27.9369 8.68612 29.2139 7.94676C30.482 7.24103 31.7913 6.58243 33.142 5.97095C34.5172 5.4021 35.9338 4.88037 37.3917 4.40577C38.816 3.92217 40.2726 3.51933 41.7615 3.19726C43.2504 2.87518 44.7594 2.61255 46.2884 2.40937C47.8174 2.20619 49.3452 2.07477 50.8717 2.01513C52.3982 1.95548 53.9066 1.96311 55.3971 2.03801C56.9211 2.1219 58.4316 2.25625 59.9286 2.44105C61.4255 2.62585 62.9257 2.8656 64.4292 3.16031C65.9417 3.42137 67.462 3.72057 68.99 4.0579C70.509 4.42887 72.0493 4.78752 73.6109 5.13384C75.1635 5.5138 76.7328 5.89825 78.319 6.2872C79.9141 6.64251 81.5428 7.00682 83.2051 7.38011C84.8763 7.71977 86.5734 8.03029 88.2962 8.31167C90.0436 8.63567 91.8258 8.8969 93.6428 9.09535C95.4598 9.29379 97.3239 9.45078 99.235 9.5663C101.146 9.68183 103.113 9.72225 105.137 9.68757C107.16 9.65289 109.23 9.57675 111.348 9.45914C113.423 9.36618 115.545 9.23176 117.714 9.05587C119.849 8.87099 121.985 8.68611 124.12 8.50123C126.298 8.2917 128.451 8.11132 130.577 7.96008C132.704 7.80883 134.804 7.68673 136.879 7.59377C138.954 7.50081 140.977 7.46613 142.949 7.48974C144.921 7.51334 146.837 7.61204 148.696 7.78585C150.547 7.99329 152.32 8.28815 154.016 8.67044C155.687 9.0101 157.284 9.49213 158.807 10.1165C160.297 10.732 161.678 11.4807 162.953 12.3629C164.193 13.2361 165.343 14.2472 166.402 15.3961C167.436 16.5024 168.355 17.704 169.158 19.0008C169.952 20.3313 170.64 21.7233 171.222 23.177C171.761 24.6554 172.198 26.1785 172.533 27.7464C172.868 29.3143 173.085 30.9225 173.182 32.571C173.28 34.2196 173.247 35.8871 173.083 37.5735C172.928 39.2264 172.663 40.8859 172.288 42.5521C171.88 44.2093 171.355 45.835 170.712 47.4292C170.069 49.0235 169.313 50.5694 168.444 52.0671C167.584 53.5311 166.573 54.9547 165.412 56.3378C164.292 57.6963 163.081 58.9942 161.779 60.2314C160.443 61.4597 159.044 62.6531 157.583 63.8118C156.121 64.9704 154.597 66.0943 153.011 67.1834C151.424 68.2724 149.821 69.357 148.201 70.437C146.581 71.5171 144.965 72.5803 143.354 73.6268C141.7 74.6978 140.08 75.7779 138.494 76.867C136.941 77.965 135.417 79.0889 133.922 80.2385C132.427 81.3882 131.012 82.5772 129.675 83.8054C128.339 85.0337 127.099 86.3057 125.956 87.6216C124.803 88.971 123.758 90.3856 122.822 91.8653C121.895 93.3114 121.077 94.8225 120.367 96.3988C119.623 97.9661 118.98 99.5603 118.438 101.182C117.862 102.794 117.353 104.424 116.912 106.072C116.437 107.711 116.016 109.347 115.651 110.98C115.252 112.603 114.878 114.198 114.531 115.763C114.183 117.328 113.816 118.834 113.428 120.28C113.074 121.736 112.683 123.127 112.256 124.455C111.828 125.782 111.339 127.003 110.789 128.117C110.263 129.274 109.664 130.304 108.991 131.205C108.318 132.106 107.55 132.892 106.687 133.562C105.824 134.232 104.866 134.786 103.813 135.225C102.803 135.64 101.689 135.972 100.471 136.222C99.2532 136.473 97.9526 136.629 96.5693 136.691C95.2106 136.796 93.7647 136.823 92.2317 136.773C90.6896 136.756 89.0727 136.683 87.3809 136.554C85.7227 136.435 83.9806 136.292 82.1546 136.127C80.3286 135.963 78.4355 135.78 76.4752 135.579C74.515 135.378 72.4954 135.198 70.4165 135.037C68.3376 134.877 66.2116 134.758 64.0385 134.68C61.8409 134.56 59.5917 134.498 57.2909 134.494C54.9991 134.457 52.6771 134.466 50.3247 134.521C47.9478 134.533 45.5832 134.566 43.2308 134.621C40.8785 134.675 38.5474 134.718 36.2376 134.748C33.9368 134.744 31.6909 134.737 29.4998 134.727C27.2841 134.674 25.1491 134.588 23.0948 134.471C21.0404 134.353 19.0801 134.152 17.2141 133.868C15.3815 133.594 13.6599 133.24 12.0493 132.809C10.4386 132.377 9.00272 131.83 7.74161 131.168C6.44694 130.497 5.32706 129.71 4.38196 128.808C3.47041 127.914 2.74265 126.872 2.19869 125.681Z" stroke="white" stroke-opacity="0.3" stroke-width="2" stroke-linecap="round" stroke-dasharray="62 62"/>
<path fill-rule="evenodd" clip-rule="evenodd" d="M9.07458 128.027C8.62142 126.977 8.31255 125.806 8.14796 124.514C7.98337 123.221 7.95105 121.852 8.05102 120.407C8.15898 118.931 8.35453 117.367 8.63768 115.715C8.94261 114.1 9.33114 112.412 9.80326 110.65C10.2674 108.918 10.7664 107.115 11.3003 105.242C11.856 103.406 12.4386 101.53 13.0481 99.6123C13.6576 97.6951 14.2522 95.774 14.8319 93.8488C15.4494 91.9017 16.0183 89.9576 16.5384 88.0165C17.0803 86.1132 17.5586 84.2089 17.9734 82.3035C18.3881 80.3981 18.7273 78.5365 18.9909 76.7187C19.2544 74.9009 19.4464 73.1118 19.5668 71.3517C19.717 69.5995 19.8105 67.8801 19.8473 66.1935C19.8841 64.507 19.8752 62.8722 19.8204 61.2891C19.8034 59.6842 19.7784 58.1091 19.7454 56.5639C19.7044 55.0485 19.6554 53.563 19.5984 52.1074C19.5712 50.6598 19.5618 49.2649 19.5702 47.9228C19.5865 46.5509 19.6396 45.2208 19.7293 43.9325C19.8489 42.6522 20.02 41.4177 20.2427 40.2291C20.4734 39.0106 20.7706 37.8419 21.1343 36.7231C21.5277 35.6122 22.0025 34.5551 22.5587 33.5519C23.1229 32.5188 23.7725 31.5245 24.5074 30.5692C25.2344 29.6437 26.0427 28.772 26.9324 27.9542C27.8301 27.1064 28.7943 26.3085 29.8249 25.5604C30.8476 24.8422 31.9258 24.1549 33.0596 23.4984C34.1854 22.8719 35.3479 22.2871 36.5471 21.7443C37.7681 21.2392 39.0257 20.776 40.3201 20.3546C41.5846 19.9253 42.8779 19.5676 44.1998 19.2817C45.5217 18.9957 46.8614 18.7626 48.2189 18.5822C49.5764 18.4018 50.9328 18.2851 52.2881 18.2321C53.6434 18.1792 54.9826 18.186 56.3059 18.2525C57.659 18.3269 59 18.4462 60.3291 18.6103C61.6581 18.7744 62.9901 18.9872 64.3249 19.2489C65.6678 19.4807 67.0175 19.7463 68.3742 20.0458C69.7228 20.3751 71.0903 20.6936 72.4768 21.001C73.8552 21.3384 75.2485 21.6797 76.6567 22.025C78.0729 22.3405 79.5189 22.6639 80.9947 22.9954C82.4786 23.2969 83.9853 23.5726 85.5149 23.8224C87.0662 24.1101 88.6485 24.342 90.2617 24.5182C91.8749 24.6944 93.5299 24.8338 95.2267 24.9363C96.9235 25.0389 98.67 25.0748 100.466 25.044C102.263 25.0132 104.101 24.9456 105.981 24.8412C107.823 24.7587 109.707 24.6393 111.633 24.4831C113.529 24.319 115.425 24.1549 117.321 23.9907C119.254 23.8047 121.165 23.6445 123.053 23.5103C124.941 23.376 126.806 23.2676 128.648 23.1851C130.491 23.1025 132.287 23.0717 134.038 23.0927C135.788 23.1136 137.489 23.2013 139.14 23.3556C140.783 23.5398 142.357 23.8015 143.863 24.141C145.347 24.4425 146.765 24.8705 148.117 25.4248C149.439 25.9712 150.666 26.636 151.797 27.4193C152.899 28.1945 153.919 29.0922 154.859 30.1122C155.778 31.0945 156.593 32.1613 157.307 33.3126C158.012 34.4938 158.623 35.7298 159.139 37.0204C159.618 38.3329 160.006 39.6852 160.303 41.0772C160.601 42.4693 160.793 43.8971 160.88 45.3607C160.967 46.8243 160.937 48.3048 160.791 49.8021C160.654 51.2696 160.418 52.7429 160.086 54.2222C159.724 55.6935 159.257 57.1369 158.686 58.5523C158.115 59.9677 157.444 61.3403 156.673 62.67C155.909 63.9698 155.012 65.2337 153.98 66.4617C152.987 67.6678 151.912 68.82 150.755 69.9185C149.569 71.009 148.327 72.0686 147.03 73.0973C145.732 74.126 144.379 75.1238 142.971 76.0907C141.562 77.0576 140.139 78.0205 138.7 78.9794C137.262 79.9383 135.827 80.8823 134.397 81.8114C132.929 82.7623 131.491 83.7212 130.082 84.6881C128.703 85.663 127.35 86.6608 126.023 87.6815C124.696 88.7022 123.439 89.7578 122.253 90.8483C121.066 91.9388 119.966 93.0682 118.95 94.2364C117.927 95.4345 116.999 96.6904 116.168 98.0042C115.345 99.288 114.619 100.63 113.988 102.029C113.328 103.421 112.757 104.836 112.276 106.275C111.764 107.707 111.313 109.154 110.921 110.617C110.499 112.073 110.126 113.525 109.801 114.975C109.447 116.416 109.115 117.832 108.807 119.221C108.498 120.611 108.172 121.948 107.828 123.232C107.514 124.524 107.167 125.76 106.787 126.938C106.407 128.117 105.973 129.201 105.485 130.19C105.018 131.217 104.486 132.131 103.888 132.931C103.29 133.731 102.609 134.429 101.843 135.024C101.076 135.619 100.226 136.111 99.2915 136.501C98.3947 136.868 97.4056 137.164 96.3242 137.386C95.2428 137.608 94.0881 137.747 92.86 137.802C91.6536 137.895 90.3699 137.919 89.0089 137.874C87.6398 137.86 86.2043 137.795 84.7022 137.681C83.23 137.574 81.6833 137.448 80.0621 137.302C78.4409 137.155 76.7601 136.993 75.0198 136.815C73.2794 136.636 71.4864 136.476 69.6406 136.334C67.7949 136.191 65.9074 136.085 63.978 136.017C62.0269 135.91 60.03 135.855 57.9873 135.852C55.9526 135.819 53.891 135.826 51.8025 135.875C49.6922 135.886 47.5928 135.915 45.5043 135.964C43.4158 136.012 41.3462 136.05 39.2955 136.077C37.2528 136.073 35.2587 136.067 33.3134 136.058C31.3463 136.011 29.4507 135.935 27.6268 135.831C25.8029 135.726 24.0625 135.548 22.4057 135.296C20.7787 135.052 19.2503 134.738 17.8203 134.355C16.3902 133.972 15.1154 133.486 13.9958 132.898C12.8463 132.302 11.852 131.604 11.013 130.803C10.2037 130.01 9.55752 129.084 9.07458 128.027Z" stroke="white" stroke-opacity="0.3" stroke-width="2" stroke-linecap="round" stroke-dasharray="62 62"/>
<path fill-rule="evenodd" clip-rule="evenodd" d="M16.1124 130.428C15.7178 129.514 15.4489 128.494 15.3056 127.369C15.1623 126.244 15.1341 125.052 15.2212 123.793C15.3152 122.508 15.4854 121.147 15.732 119.708C15.9975 118.302 16.3357 116.832 16.7468 115.298C17.1509 113.79 17.5854 112.22 18.0503 110.589C18.5341 108.991 19.0414 107.357 19.5721 105.688C20.1027 104.018 20.6205 102.346 21.1252 100.669C21.6629 98.9742 22.1581 97.2815 22.611 95.5914C23.0828 93.9342 23.4993 92.2761 23.8604 90.6171C24.2215 88.9582 24.5168 87.3373 24.7463 85.7545C24.9758 84.1718 25.143 82.6141 25.2478 81.0815C25.3786 79.5559 25.46 78.0589 25.492 76.5904C25.5241 75.122 25.5163 73.6986 25.4686 72.3202C25.4538 70.9228 25.432 69.5514 25.4033 68.206C25.3676 66.8866 25.3249 65.5932 25.2753 64.3258C25.2516 63.0654 25.2434 61.8509 25.2507 60.6824C25.265 59.4878 25.3112 58.3297 25.3893 57.2081C25.4934 56.0933 25.6424 55.0185 25.8363 53.9836C26.0372 52.9226 26.2959 51.9051 26.6126 50.9309C26.9551 49.9637 27.3685 49.0433 27.8528 48.1698C28.344 47.2703 28.9096 46.4046 29.5495 45.5728C30.1825 44.767 30.8863 44.0081 31.6609 43.2959C32.4425 42.5578 33.282 41.8631 34.1794 41.2118C35.0698 40.5864 36.0086 39.988 36.9958 39.4164C37.976 38.8709 38.9882 38.3618 40.0323 37.8891C41.0954 37.4493 42.1904 37.046 43.3174 36.6791C44.4184 36.3053 45.5444 35.9939 46.6954 35.7449C47.8463 35.496 49.0128 35.293 50.1948 35.1359C51.3767 34.9788 52.5577 34.8772 53.7377 34.8311C54.9178 34.785 56.0838 34.7909 57.236 34.8488C58.4141 34.9137 59.5817 35.0175 60.7389 35.1604C61.8961 35.3032 63.0558 35.4886 64.2181 35.7164C65.3873 35.9182 66.5625 36.1495 67.7437 36.4102C68.9179 36.697 70.1086 36.9743 71.3157 37.242C72.5159 37.5357 73.7291 37.8329 74.9552 38.1335C76.1883 38.4082 77.4473 38.6898 78.7322 38.9784C80.0242 39.241 81.336 39.481 82.6678 39.6985C84.0186 39.949 85.3963 40.1509 86.8008 40.3043C88.2054 40.4577 89.6464 40.5791 91.1238 40.6684C92.6011 40.7577 94.1218 40.7889 95.6859 40.7621C97.25 40.7353 98.8505 40.6764 100.487 40.5855C102.091 40.5137 103.732 40.4098 105.408 40.2738C107.059 40.1309 108.71 39.988 110.361 39.845C112.044 39.6831 113.708 39.5436 115.352 39.4267C116.996 39.3098 118.62 39.2154 120.224 39.1436C121.828 39.0717 123.392 39.0449 124.916 39.0631C126.44 39.0814 127.921 39.1577 129.358 39.292C130.789 39.4524 132.16 39.6803 133.471 39.9758C134.762 40.2384 135.997 40.611 137.174 41.0937C138.326 41.5694 139.394 42.1483 140.379 42.8302C141.338 43.5052 142.227 44.2868 143.045 45.175C143.845 46.0302 144.555 46.959 145.176 47.9615C145.79 48.99 146.322 50.0661 146.771 51.1898C147.188 52.3326 147.526 53.51 147.785 54.722C148.044 55.9341 148.211 57.1772 148.287 58.4516C148.363 59.7259 148.337 61.0149 148.21 62.3186C148.09 63.5963 147.885 64.8792 147.596 66.1672C147.28 67.4482 146.874 68.7049 146.377 69.9373C145.88 71.1697 145.296 72.3648 144.624 73.5225C143.959 74.6543 143.178 75.7547 142.28 76.8239C141.415 77.874 140.479 78.8773 139.472 79.8337C138.439 80.7832 137.358 81.7058 136.228 82.6014C135.098 83.4971 133.92 84.3659 132.694 85.2077C131.467 86.0496 130.228 86.888 128.976 87.7229C127.723 88.5578 126.474 89.3797 125.229 90.1887C123.951 91.0166 122.698 91.8515 121.472 92.6934C120.271 93.5422 119.093 94.411 117.938 95.2997C116.782 96.1884 115.688 97.1075 114.655 98.057C113.622 99.0065 112.664 99.9898 111.779 101.007C110.888 102.05 110.081 103.144 109.357 104.287C108.641 105.405 108.008 106.573 107.459 107.792C106.884 109.004 106.387 110.236 105.968 111.489C105.523 112.735 105.13 113.996 104.788 115.27C104.421 116.537 104.096 117.801 103.813 119.063C103.505 120.318 103.216 121.551 102.948 122.761C102.679 123.971 102.395 125.135 102.096 126.253C101.822 127.378 101.52 128.454 101.189 129.48C100.859 130.506 100.481 131.45 100.055 132.311C99.6488 133.206 99.1854 134.001 98.6651 134.698C98.1448 135.394 97.5512 136.002 96.8841 136.52C96.2171 137.038 95.4767 137.466 94.6629 137.806C93.8821 138.126 93.0209 138.383 92.0794 138.577C91.1378 138.77 90.1324 138.891 89.0631 138.939C88.0128 139.02 86.8951 139.041 85.71 139.002C84.518 138.989 83.2681 138.933 81.9603 138.833C80.6784 138.741 79.3317 138.631 77.9202 138.503C76.5086 138.376 75.0452 138.234 73.5299 138.079C72.0146 137.924 70.4534 137.784 68.8464 137.66C67.2393 137.536 65.5959 137.444 63.916 137.384C62.2172 137.291 60.4785 137.244 58.7 137.241C56.9284 137.212 55.1334 137.219 53.3149 137.261C51.4775 137.27 49.6496 137.296 47.8312 137.338C46.0128 137.381 44.2108 137.413 42.4253 137.437C40.6467 137.434 38.9105 137.428 37.2168 137.42C35.504 137.38 33.8536 137.314 32.2655 137.222C30.6774 137.131 29.1621 136.976 27.7196 136.757C26.303 136.544 24.9722 136.271 23.7271 135.938C22.482 135.604 21.372 135.181 20.3972 134.669C19.3964 134.15 18.5307 133.542 17.8001 132.845C17.0954 132.154 16.5329 131.349 16.1124 130.428Z" stroke="white" stroke-opacity="0.3" stroke-width="2" stroke-linecap="round" stroke-dasharray="62 62"/>
</g>
</svg>
