<svg width="20" height="20" viewBox="0 0 20 20" fill="none" xmlns="http://www.w3.org/2000/svg">
<path d="M14.9499 13.9548C16.2629 12.6413 17.0004 10.8601 17.0004 9.00285C17.0004 7.14563 16.2629 5.36443 14.9499 4.05085C14.3001 3.40052 13.5284 2.88463 12.6791 2.53265C11.8297 2.18068 10.9193 1.99951 9.99995 1.99951C9.08056 1.99951 8.17018 2.18068 7.32084 2.53265C6.4715 2.88463 5.69983 3.40052 5.04995 4.05085C3.73704 5.36443 2.99951 7.14563 2.99951 9.00285C2.99951 10.8601 3.73704 12.6413 5.04995 13.9548L6.57095 15.4539L8.61395 17.4389L8.74695 17.5569C9.52195 18.1849 10.6569 18.1448 11.3869 17.4389L13.8219 15.0689L14.9499 13.9548ZM9.99995 11.9998C9.2043 11.9998 8.44124 11.6838 7.87863 11.1212C7.31602 10.5586 6.99995 9.7955 6.99995 8.99985C6.99995 8.2042 7.31602 7.44114 7.87863 6.87853C8.44124 6.31592 9.2043 5.99985 9.99995 5.99985C10.7956 5.99985 11.5587 6.31592 12.1213 6.87853C12.6839 7.44114 13 8.2042 13 8.99985C13 9.7955 12.6839 10.5586 12.1213 11.1212C11.5587 11.6838 10.7956 11.9998 9.99995 11.9998Z" fill="#7B5BFB"/>
</svg>
