<svg width="16" height="12" viewBox="0 0 16 12" fill="none" xmlns="http://www.w3.org/2000/svg">
<path fill-rule="evenodd" clip-rule="evenodd" d="M8.3231 1.53754C7.27477 1.53754 7.16994 1.64875 6.62735 1.64875C6.17544 1.64875 4.81827 0.541626 4.1404 0.541626C3.46181 0.541626 2.6706 0.940418 2.6706 2.09146V3.41958C2.67202 3.76808 2.7981 4.83625 3.29394 4.55079C2.70815 5.24354 2.64935 6.05175 2.65715 6.83375C2.49919 6.87908 2.3384 6.93079 2.18185 6.98392C1.69735 7.14967 1.1831 7.36075 0.95148 7.51092C0.833127 7.58738 0.749995 7.70772 0.720372 7.84547C0.690749 7.98323 0.717062 8.12711 0.793521 8.24546C0.869981 8.36381 0.990325 8.44694 1.12808 8.47657C1.26583 8.50619 1.40971 8.47988 1.52806 8.40342C1.63856 8.33188 2.03877 8.1555 2.5254 7.98904L2.6869 7.93592C2.71948 8.24263 2.80094 8.52383 2.92206 8.77883L2.90506 8.78804C2.61465 8.94104 2.34548 9.11742 2.17406 9.22933L2.09402 9.28175C1.97567 9.35821 1.89254 9.47855 1.86291 9.61631C1.83329 9.75406 1.8596 9.89794 1.93606 10.0163C2.01252 10.1346 2.13287 10.2178 2.27062 10.2474C2.40837 10.277 2.55225 10.2507 2.6706 10.1743L2.7634 10.1133C2.93694 10 3.15935 9.85479 3.4016 9.72729C3.45827 9.69683 3.51281 9.66992 3.56523 9.64513C4.79065 10.7948 6.99144 11.1666 8.3231 11.1666C9.65477 11.1666 11.8556 10.7948 13.081 9.64513C13.1334 9.66992 13.1872 9.69683 13.2446 9.72729C13.4869 9.85479 13.7093 10 13.8828 10.1133L13.9756 10.1743C14.094 10.2507 14.2378 10.277 14.3756 10.2474C14.5133 10.2178 14.6337 10.1346 14.7101 10.0163C14.7866 9.89794 14.8129 9.75406 14.7833 9.61631C14.7537 9.47855 14.6705 9.35821 14.5522 9.28175L14.4721 9.22933C14.2354 9.07102 13.9915 8.92376 13.7411 8.78804L13.7241 8.77883C13.8453 8.52383 13.9267 8.24263 13.9593 7.93592L14.1208 7.98904C14.6074 8.1555 15.0076 8.33188 15.1189 8.40342C15.2372 8.47559 15.379 8.49868 15.5141 8.46776C15.6491 8.43685 15.7668 8.35437 15.8419 8.23793C15.9171 8.12149 15.9437 7.9803 15.9162 7.84448C15.8887 7.70866 15.8092 7.58896 15.6947 7.51092C15.4631 7.36075 14.9489 7.14967 14.4651 6.98392C14.3075 6.93021 14.1488 6.87991 13.9891 6.83304C13.9976 6.05104 13.9381 5.24354 13.3516 4.55079C13.8474 4.83625 13.9749 3.76808 13.9756 3.41888V2.09146C13.9756 0.940418 13.1844 0.541626 12.5058 0.541626C11.8279 0.541626 10.4708 1.64875 10.0196 1.64875C9.47627 1.64875 9.37144 1.53754 8.3231 1.53754ZM7.84498 8.04996C7.98806 8.00108 8.15735 7.97913 8.3231 7.97913C8.48885 7.97913 8.65815 8.00108 8.80194 8.04996C8.87277 8.07404 8.95777 8.11229 9.03427 8.17321C9.08672 8.21277 9.12961 8.2636 9.15977 8.32196C9.18993 8.38032 9.20659 8.44471 9.20852 8.51038C9.20852 8.67329 9.11006 8.78663 9.03427 8.84754C8.95848 8.90846 8.87206 8.94671 8.80194 8.97079C8.64712 9.01978 8.48547 9.04369 8.3231 9.04163C8.16097 9.04374 7.99954 9.01982 7.84498 8.97079C7.76074 8.94353 7.68189 8.90183 7.61194 8.84754C7.55949 8.80799 7.5166 8.75715 7.48644 8.69879C7.45628 8.64043 7.43962 8.57604 7.43769 8.51038C7.43769 8.34746 7.53615 8.23413 7.61194 8.17321C7.68773 8.11229 7.77485 8.07404 7.84498 8.04996ZM9.86019 5.85413C9.95723 5.69263 10.1478 5.49996 10.4339 5.49996C10.7201 5.49996 10.9114 5.69263 11.0077 5.85413C11.1083 6.02342 11.1564 6.22742 11.1564 6.43C11.1564 6.63188 11.1083 6.83588 11.0077 7.00446C10.9114 7.16667 10.7201 7.35933 10.4339 7.35933C10.1478 7.35933 9.95723 7.16667 9.86019 7.00517C9.76021 6.83013 9.70886 6.63156 9.71144 6.43C9.71144 6.22742 9.7596 6.02342 9.86019 5.85483M5.63852 5.85483C5.73556 5.69333 5.9261 5.50067 6.21227 5.50067C6.49844 5.50067 6.68969 5.69333 6.78602 5.85483C6.8866 6.02413 6.93477 6.22813 6.93477 6.43071C6.93477 6.63258 6.8866 6.83658 6.78602 7.00517C6.68969 7.16738 6.49844 7.36004 6.21227 7.36004C5.9261 7.36004 5.73556 7.16738 5.63852 7.00588C5.53855 6.83084 5.48719 6.63226 5.48977 6.43071C5.48977 6.22813 5.53794 6.02342 5.63852 5.85483Z" fill="white"/>
</svg>
