<svg width="15" height="11" viewBox="0 0 15 11" fill="none" xmlns="http://www.w3.org/2000/svg">
<path d="M11.25 0.5C10.1812 0.5 9.53125 0.70625 9.15625 0.88125C8.675 0.64375 8.125 0.5 7.5 0.5C6.875 0.5 6.325 0.64375 5.84375 0.88125C5.46875 0.70625 4.81875 0.5 3.75 0.5C1.875 0.5 0.625 5.5 0.625 6.75C0.625 7.26875 1.45 7.74375 2.5875 7.9375C2.9875 9.3375 4.875 10.4062 7.1875 10.5V7.825C6.81875 7.59375 6.25 7.175 6.25 6.75C6.25 6.125 7.5 6.125 7.5 6.125C7.5 6.125 8.75 6.125 8.75 6.75C8.75 7.175 8.18125 7.59375 7.8125 7.825V10.5C10.125 10.4062 12.0125 9.3375 12.4125 7.9375C13.55 7.74375 14.375 7.26875 14.375 6.75C14.375 5.5 13.125 0.5 11.25 0.5ZM2.59375 6.66875C2.28125 6.59375 2.0375 6.50625 1.875 6.4375C2.03125 4.70625 3.25 2 3.78125 1.75C4.11875 1.75 4.375 1.7875 4.60625 1.81875C3.29375 3.2625 2.775 5.525 2.59375 6.66875ZM5.625 5.5C5.45924 5.5 5.30027 5.43415 5.18306 5.31694C5.06585 5.19973 5 5.04076 5 4.875C5 4.5375 5.28125 4.25 5.625 4.25C5.79076 4.25 5.94973 4.31585 6.06694 4.43306C6.18415 4.55027 6.25 4.70924 6.25 4.875C6.25 5.225 5.96875 5.5 5.625 5.5ZM9.375 5.5C9.20924 5.5 9.05027 5.43415 8.93306 5.31694C8.81585 5.19973 8.75 5.04076 8.75 4.875C8.75 4.5375 9.03125 4.25 9.375 4.25C9.54076 4.25 9.69973 4.31585 9.81694 4.43306C9.93415 4.55027 10 4.70924 10 4.875C10 5.225 9.71875 5.5 9.375 5.5ZM12.4063 6.66875C12.225 5.525 11.7062 3.2625 10.3937 1.81875C10.625 1.7875 10.8813 1.75 11.2188 1.75C11.75 2 12.9688 4.70625 13.125 6.4375C12.9688 6.50625 12.725 6.59375 12.4063 6.66875Z" fill="black"/>
</svg>
