<svg width="15" height="15" viewBox="0 0 15 15" fill="none" xmlns="http://www.w3.org/2000/svg">
<path d="M11.25 2.5C10.1812 2.5 9.53125 2.70625 9.15625 2.88125C8.675 2.64375 8.125 2.5 7.5 2.5C6.875 2.5 6.325 2.64375 5.84375 2.88125C5.46875 2.70625 4.81875 2.5 3.75 2.5C1.875 2.5 0.625 7.5 0.625 8.75C0.625 9.26875 1.45 9.74375 2.5875 9.9375C2.9875 11.3375 4.875 12.4062 7.1875 12.5V9.825C6.81875 9.59375 6.25 9.175 6.25 8.75C6.25 8.125 7.5 8.125 7.5 8.125C7.5 8.125 8.75 8.125 8.75 8.75C8.75 9.175 8.18125 9.59375 7.8125 9.825V12.5C10.125 12.4062 12.0125 11.3375 12.4125 9.9375C13.55 9.74375 14.375 9.26875 14.375 8.75C14.375 7.5 13.125 2.5 11.25 2.5ZM2.59375 8.66875C2.28125 8.59375 2.0375 8.50625 1.875 8.4375C2.03125 6.70625 3.25 4 3.78125 3.75C4.11875 3.75 4.375 3.7875 4.60625 3.81875C3.29375 5.2625 2.775 7.525 2.59375 8.66875ZM5.625 7.5C5.45924 7.5 5.30027 7.43415 5.18306 7.31694C5.06585 7.19973 5 7.04076 5 6.875C5 6.5375 5.28125 6.25 5.625 6.25C5.79076 6.25 5.94973 6.31585 6.06694 6.43306C6.18415 6.55027 6.25 6.70924 6.25 6.875C6.25 7.225 5.96875 7.5 5.625 7.5ZM9.375 7.5C9.20924 7.5 9.05027 7.43415 8.93306 7.31694C8.81585 7.19973 8.75 7.04076 8.75 6.875C8.75 6.5375 9.03125 6.25 9.375 6.25C9.54076 6.25 9.69973 6.31585 9.81694 6.43306C9.93415 6.55027 10 6.70924 10 6.875C10 7.225 9.71875 7.5 9.375 7.5ZM12.4062 8.66875C12.225 7.525 11.7062 5.2625 10.3937 3.81875C10.625 3.7875 10.8813 3.75 11.2188 3.75C11.75 4 12.9688 6.70625 13.125 8.4375C12.9688 8.50625 12.725 8.59375 12.4062 8.66875Z" fill="white"/>
</svg>
