<svg width="17" height="17" viewBox="0 0 17 17" fill="none" xmlns="http://www.w3.org/2000/svg">
<path fill-rule="evenodd" clip-rule="evenodd" d="M8.32286 4.53754C7.27453 4.53754 7.16969 4.64875 6.62711 4.64875C6.17519 4.64875 4.81803 3.54163 4.14015 3.54163C3.46157 3.54163 2.67036 3.94042 2.67036 5.09146V6.41958C2.67178 6.76808 2.79786 7.83625 3.29369 7.55079C2.7079 8.24354 2.64911 9.05175 2.6569 9.83375C2.49894 9.87908 2.33815 9.93079 2.18161 9.98392C1.69711 10.1497 1.18286 10.3608 0.951235 10.5109C0.832883 10.5874 0.749751 10.7077 0.720128 10.8455C0.690505 10.9832 0.716817 11.1271 0.793277 11.2455C0.869737 11.3638 0.99008 11.4469 1.12783 11.4766C1.26559 11.5062 1.40947 11.4799 1.52782 11.4034C1.63832 11.3319 2.03853 11.1555 2.52515 10.989L2.68665 10.9359C2.71924 11.2426 2.80069 11.5238 2.92182 11.7788L2.90482 11.788C2.6144 11.941 2.34524 12.1174 2.17382 12.2293L2.09378 12.2818C1.97542 12.3582 1.89229 12.4786 1.86267 12.6163C1.83305 12.7541 1.85936 12.8979 1.93582 13.0163C2.01228 13.1346 2.13262 13.2178 2.27038 13.2474C2.40813 13.277 2.55201 13.2507 2.67036 13.1743L2.76315 13.1133C2.93669 13 3.15911 12.8548 3.40136 12.7273C3.45803 12.6968 3.51257 12.6699 3.56499 12.6451C4.7904 13.7948 6.99119 14.1666 8.32286 14.1666C9.65453 14.1666 11.8553 13.7948 13.0807 12.6451C13.1332 12.6699 13.187 12.6968 13.2444 12.7273C13.4866 12.8548 13.709 13 13.8826 13.1133L13.9754 13.1743C14.0937 13.2507 14.2376 13.277 14.3753 13.2474C14.5131 13.2178 14.6334 13.1346 14.7099 13.0163C14.7864 12.8979 14.8127 12.7541 14.7831 12.6163C14.7534 12.4786 14.6703 12.3582 14.5519 12.2818L14.4719 12.2293C14.2352 12.071 13.9913 11.9238 13.7409 11.788L13.7239 11.7788C13.845 11.5238 13.9265 11.2426 13.9591 10.9359L14.1206 10.989C14.6072 11.1555 15.0074 11.3319 15.1186 11.4034C15.2369 11.4756 15.3787 11.4987 15.5138 11.4678C15.6489 11.4368 15.7666 11.3544 15.8417 11.2379C15.9168 11.1215 15.9435 10.9803 15.916 10.8445C15.8885 10.7087 15.809 10.589 15.6945 10.5109C15.4629 10.3608 14.9486 10.1497 14.4648 9.98392C14.3073 9.93021 14.1486 9.87991 13.9888 9.83304C13.9973 9.05104 13.9378 8.24354 13.3513 7.55079C13.8472 7.83625 13.9747 6.76808 13.9754 6.41888V5.09146C13.9754 3.94042 13.1842 3.54163 12.5056 3.54163C11.8277 3.54163 10.4705 4.64875 10.0193 4.64875C9.47603 4.64875 9.37119 4.53754 8.32286 4.53754ZM7.84474 11.05C7.98782 11.0011 8.15711 10.9791 8.32286 10.9791C8.48861 10.9791 8.6579 11.0011 8.80169 11.05C8.87253 11.074 8.95753 11.1123 9.03403 11.1732C9.08647 11.2128 9.12936 11.2636 9.15952 11.322C9.18968 11.3803 9.20635 11.4447 9.20828 11.5104C9.20828 11.6733 9.10982 11.7866 9.03403 11.8475C8.95823 11.9085 8.87182 11.9467 8.80169 11.9708C8.64688 12.0198 8.48523 12.0437 8.32286 12.0416C8.16072 12.0437 7.9993 12.0198 7.84474 11.9708C7.7605 11.9435 7.68164 11.9018 7.61169 11.8475C7.55925 11.808 7.51636 11.7571 7.4862 11.6988C7.45604 11.6404 7.43937 11.576 7.43744 11.5104C7.43744 11.3475 7.5359 11.2341 7.61169 11.1732C7.68749 11.1123 7.77461 11.074 7.84474 11.05ZM9.85994 8.85413C9.95699 8.69263 10.1475 8.49996 10.4337 8.49996C10.7199 8.49996 10.9111 8.69263 11.0074 8.85413C11.108 9.02342 11.1562 9.22742 11.1562 9.43C11.1562 9.63188 11.108 9.83588 11.0074 10.0045C10.9111 10.1667 10.7199 10.3593 10.4337 10.3593C10.1475 10.3593 9.95699 10.1667 9.85994 10.0052C9.75997 9.83013 9.70861 9.63156 9.71119 9.43C9.71119 9.22742 9.75936 9.02342 9.85994 8.85483M5.63828 8.85483C5.73532 8.69333 5.92586 8.50067 6.21203 8.50067C6.49819 8.50067 6.68944 8.69333 6.78578 8.85483C6.88636 9.02413 6.93453 9.22813 6.93453 9.43071C6.93453 9.63258 6.88636 9.83658 6.78578 10.0052C6.68944 10.1674 6.49819 10.36 6.21203 10.36C5.92586 10.36 5.73532 10.1674 5.63828 10.0059C5.5383 9.83084 5.48695 9.63226 5.48953 9.43071C5.48953 9.22813 5.53769 9.02342 5.63828 8.85483Z" fill="black"/>
</svg>
