<svg width="286" height="368" viewBox="0 0 286 368" fill="none" xmlns="http://www.w3.org/2000/svg">
<path fill-rule="evenodd" clip-rule="evenodd" d="M477.515 61.2595C478.449 64.5139 478.913 68.0702 478.907 71.9283C478.901 75.7864 478.478 79.8194 477.637 84.0273C476.762 88.3198 475.595 92.8393 474.138 97.5857C472.631 102.213 470.851 107.024 468.798 112.02C466.779 116.932 464.631 122.038 462.353 127.338C460.027 132.519 457.605 137.809 455.089 143.209C452.573 148.61 450.1 154.027 447.668 159.462C445.118 164.947 442.711 170.441 440.449 175.946C438.137 181.33 436.011 186.742 434.072 192.182C432.132 197.621 430.432 202.96 428.969 208.199C427.507 213.438 426.266 218.62 425.246 223.744C424.142 228.834 423.216 233.848 422.47 238.787C421.723 243.727 421.131 248.532 420.693 253.202C420.135 257.922 419.612 262.558 419.124 267.109C418.671 271.575 418.252 275.956 417.869 280.253C417.401 284.515 416.9 288.615 416.368 292.554C415.8 296.577 415.141 300.464 414.39 304.213C413.554 307.928 412.584 311.489 411.48 314.896C410.341 318.387 409.026 321.707 407.535 324.856C405.959 327.969 404.164 330.894 402.151 333.63C400.102 336.451 397.818 339.125 395.298 341.653C392.813 344.096 390.109 346.35 387.186 348.416C384.229 350.565 381.095 352.544 377.785 354.351C374.509 356.073 371.082 357.684 367.504 359.183C363.96 360.597 360.324 361.874 356.597 363.015C352.82 364.036 348.95 364.92 344.989 365.668C341.113 366.45 337.179 367.011 333.189 367.351C329.198 367.69 325.175 367.868 321.12 367.884C317.064 367.9 313.036 367.729 309.036 367.371C305.035 367.014 301.104 366.487 297.243 365.791C293.297 365.06 289.404 364.202 285.562 363.217C281.721 362.232 277.889 361.103 274.068 359.829C270.212 358.64 266.348 357.349 262.477 355.956C258.641 354.478 254.745 353.025 250.789 351.597C246.869 350.084 242.905 348.555 238.9 347.007C234.86 345.545 230.736 344.047 226.527 342.515C222.283 341.068 217.962 339.688 213.564 338.375C209.116 336.943 204.557 335.663 199.886 334.535C195.214 333.407 190.407 332.371 185.462 331.427C180.517 330.484 175.401 329.717 170.113 329.128C164.826 328.538 159.401 328.041 153.84 327.636C148.399 327.181 142.82 326.819 137.105 326.548C131.475 326.313 125.844 326.077 120.213 325.841C114.463 325.656 108.791 325.403 103.195 325.083C97.5989 324.762 92.0801 324.375 86.6384 323.92C81.1967 323.465 75.909 322.875 70.7755 322.151C65.6419 321.427 60.6799 320.526 55.8893 319.448C51.1336 318.285 46.6089 316.92 42.3154 315.353C38.0716 313.906 34.0689 312.112 30.3073 309.972C26.6302 307.867 23.2786 305.45 20.2527 302.721C17.3112 300.027 14.6531 297.005 12.2783 293.653C9.95314 290.42 7.96104 286.978 6.30194 283.327C4.67766 279.591 3.35158 275.73 2.32372 271.743C1.41513 267.707 0.787356 263.589 0.440385 259.388C0.0934135 255.187 0.0694884 250.92 0.368607 246.589C0.667726 242.257 1.31473 237.92 2.30961 233.578C3.26968 229.32 4.518 225.082 6.05455 220.863C7.67558 216.679 9.59228 212.616 11.8046 208.675C14.017 204.734 16.5077 200.957 19.2766 197.344C22.0107 193.815 25.1249 190.443 28.6193 187.226C31.9944 184.06 35.5882 181.083 39.4005 178.295C43.2974 175.541 47.3458 172.899 51.5457 170.369C55.7457 167.838 60.0972 165.42 64.6002 163.113C69.1033 160.807 73.6486 158.518 78.2361 156.246C82.8236 153.974 87.3938 151.744 91.9465 149.557C96.6185 147.32 101.206 145.048 105.709 142.741C110.128 140.4 114.479 137.982 118.764 135.486C123.048 132.991 127.139 130.366 131.036 127.612C134.932 124.859 138.593 121.958 142.018 118.912C145.478 115.78 148.676 112.442 151.614 108.899C154.517 105.439 157.159 101.774 159.541 97.9024C162.007 94.0655 164.219 90.1244 166.178 86.0792C168.221 82.0687 170.096 77.9888 171.801 73.8394C173.591 69.7247 175.237 65.6003 176.739 61.4661C178.325 57.3667 179.834 53.3346 181.266 49.3698C182.698 45.405 184.163 41.6019 185.66 37.9606C187.072 34.2846 188.558 30.7877 190.12 27.4699C191.681 24.1521 193.366 21.1328 195.176 18.412C196.936 15.5718 198.845 13.0898 200.902 10.9661C202.96 8.84228 205.227 7.05173 207.702 5.59443C210.177 4.13712 212.861 3.01305 215.754 2.2222C218.527 1.48131 221.544 0.988962 224.804 0.745191C228.064 0.50142 231.508 0.531175 235.136 0.834451C238.714 1.01831 242.494 1.43337 246.474 2.07962C250.49 2.64118 254.681 3.37424 259.05 4.27878C263.333 5.1486 267.828 6.10525 272.534 7.14868C277.24 8.19211 282.115 9.30495 287.159 10.4873C292.203 11.6696 297.409 12.8193 302.776 13.9365C308.143 15.0536 313.647 16.0784 319.287 17.0109C324.977 18.0629 330.821 18.9802 336.82 19.7628C342.783 20.6302 348.841 21.3878 354.993 22.0358C361.195 22.8033 367.373 23.511 373.525 24.159C379.677 24.807 385.77 25.48 391.803 26.178C397.801 26.9606 403.655 27.7336 409.365 28.4967C415.125 29.3793 420.664 30.3194 425.981 31.3171C431.298 32.3149 436.342 33.4972 441.113 34.8641C445.799 36.1963 450.17 37.6958 454.225 39.3624C458.28 41.0291 461.84 42.938 464.906 45.089C468.056 47.2748 470.712 49.7027 472.873 52.3728C474.95 55.0082 476.497 57.9704 477.515 61.2595Z" fill="#FFF5DE"/>
</svg>
