<svg width="361" height="220" viewBox="0 0 361 220" fill="none" xmlns="http://www.w3.org/2000/svg">
<g clip-path="url(#clip0_358_63)">
<path d="M20.1764 44.3664C19.2406 43.7197 18.673 42.85 18.4734 41.7573C18.2738 40.6647 18.4973 39.6505 19.144 38.7147C19.7907 37.7789 20.6604 37.2112 21.7531 37.0116C22.8458 36.812 23.86 37.0356 24.7958 37.6823C25.7315 38.329 26.2992 39.1987 26.4988 40.2913C26.6984 41.384 26.4749 42.3982 25.8281 43.334C25.1814 44.2698 24.3118 44.8375 23.2191 45.0371C22.1264 45.2367 21.1122 45.0131 20.1764 44.3664ZM29.8876 43.1765C28.9518 42.5298 28.3841 41.6601 28.1845 40.5675C27.9849 39.4748 28.2085 38.4606 28.8552 37.5248C29.5019 36.589 30.3716 36.0213 31.4643 35.8217C32.5569 35.6221 33.5712 35.8457 34.5069 36.4924C35.4427 37.1391 36.0104 38.0088 36.21 39.1015C36.4096 40.1941 36.186 41.2083 35.5393 42.1441C34.8926 43.0799 34.0229 43.6476 32.9303 43.8472C31.8376 44.0468 30.8234 43.8232 29.8876 43.1765ZM37.9085 48.7197C36.9728 48.073 36.4051 47.2033 36.2055 46.1107C36.0059 45.018 36.2294 44.0038 36.8761 43.068C37.5228 42.1322 38.3925 41.5645 39.4852 41.3649C40.5779 41.1653 41.5921 41.3889 42.5279 42.0356C43.4636 42.6823 44.0313 43.552 44.2309 44.6447C44.4305 45.7373 44.207 46.7515 43.5603 47.6873C42.9135 48.6231 42.0439 49.1908 40.9512 49.3904C39.8585 49.59 38.8443 49.3664 37.9085 48.7197ZM40.2288 58.2244C39.293 57.5777 38.7253 56.708 38.5257 55.6153C38.3261 54.5227 38.5497 53.5085 39.1964 52.5727C39.8431 51.6369 40.7128 51.0692 41.8054 50.8696C42.8981 50.67 43.9123 50.8936 44.8481 51.5403C45.7839 52.187 46.3516 53.0567 46.5512 54.1494C46.7508 55.242 46.5272 56.2562 45.8805 57.192C45.2338 58.1278 44.3641 58.6955 43.2714 58.8951C42.1788 59.0947 41.1645 58.8711 40.2288 58.2244ZM13.8119 59.7209C12.8093 59.028 12.2335 58.0625 12.0844 56.8243C11.9353 55.5862 12.2234 54.4434 12.9486 53.3959C13.7492 52.2373 14.8455 51.497 16.2375 51.175C17.6294 50.853 19.0073 50.5378 20.3714 50.2295C21.4948 49.9853 22.5714 49.6185 23.601 49.1291C24.6306 48.6397 25.7151 48.2613 26.8546 47.994C27.7451 47.7534 28.6443 47.667 29.5522 47.7348C30.4601 47.8026 31.2928 48.0982 32.0503 48.6218C32.8079 49.1453 33.3865 49.8086 33.7863 50.6116C34.186 51.4146 34.4308 52.2751 34.5207 53.1932C34.6518 54.3373 34.6722 55.4872 34.582 56.6429C34.4917 57.7987 34.5229 58.956 34.6754 60.1149C34.8701 61.5005 35.0624 62.9009 35.2524 64.3161C35.4424 65.7314 35.1375 67.0186 34.3377 68.1778C33.614 69.225 32.6464 69.8981 31.4349 70.1973C30.2234 70.4965 29.117 70.2995 28.1159 69.6063C26.9128 68.7748 25.7901 67.8508 24.7478 66.8342C23.7055 65.8176 22.5828 64.8935 21.3797 64.0621C20.1765 63.2306 18.9152 62.5071 17.5958 61.8915C16.2764 61.2759 15.0151 60.5524 13.8119 59.7209Z" fill="black" fill-opacity="0.1"/>
</g>
<g clip-path="url(#clip1_358_63)">
<path d="M14.6761 100.853C13.8676 100.294 13.3771 99.5425 13.2047 98.5985C13.0322 97.6544 13.2254 96.7782 13.7841 95.9697C14.3428 95.1612 15.0942 94.6707 16.0383 94.4983C16.9823 94.3258 17.8586 94.519 18.6671 95.0777C19.4756 95.6365 19.966 96.3879 20.1385 97.3319C20.3109 98.2759 20.1178 99.1522 19.559 99.9607C19.0003 100.769 18.2489 101.26 17.3049 101.432C16.3608 101.605 15.4846 101.411 14.6761 100.853ZM23.0663 99.8246C22.2578 99.2659 21.7674 98.5145 21.5949 97.5705C21.4225 96.6264 21.6156 95.7501 22.1743 94.9417C22.7331 94.1332 23.4845 93.6427 24.4285 93.4702C25.3726 93.2978 26.2488 93.491 27.0573 94.0497C27.8658 94.6084 28.3563 95.3598 28.5287 96.3039C28.7012 97.2479 28.508 98.1242 27.9493 98.9327C27.3905 99.7412 26.6391 100.232 25.6951 100.404C24.7511 100.577 23.8748 100.383 23.0663 99.8246ZM29.9962 104.614C29.1877 104.055 28.6973 103.304 28.5248 102.36C28.3524 101.416 28.5455 100.539 29.1043 99.7309C29.663 98.9224 30.4144 98.4319 31.3584 98.2595C32.3025 98.087 33.1787 98.2802 33.9872 98.8389C34.7957 99.3976 35.2862 100.149 35.4586 101.093C35.6311 102.037 35.4379 102.913 34.8792 103.722C34.3205 104.53 33.5691 105.021 32.625 105.193C31.681 105.366 30.8047 105.173 29.9962 104.614ZM32.0009 112.826C31.1924 112.267 30.7019 111.516 30.5295 110.572C30.357 109.627 30.5502 108.751 31.1089 107.943C31.6676 107.134 32.419 106.644 33.3631 106.471C34.3071 106.299 35.1834 106.492 35.9919 107.051C36.8004 107.609 37.2908 108.361 37.4633 109.305C37.6357 110.249 37.4426 111.125 36.8838 111.934C36.3251 112.742 35.5737 113.233 34.6297 113.405C33.6856 113.578 32.8094 113.384 32.0009 112.826ZM9.17727 114.119C8.31103 113.52 7.81351 112.686 7.6847 111.616C7.5559 110.546 7.80478 109.559 8.43134 108.654C9.12311 107.653 10.0703 107.013 11.2729 106.735C12.4755 106.457 13.666 106.185 14.8445 105.918C15.8151 105.707 16.7452 105.39 17.6348 104.968C18.5244 104.545 19.4614 104.218 20.4459 103.987C21.2152 103.779 21.9921 103.704 22.7765 103.763C23.5609 103.821 24.2804 104.077 24.9349 104.529C25.5894 104.982 26.0893 105.555 26.4347 106.248C26.7801 106.942 26.9916 107.686 27.0692 108.479C27.1825 109.467 27.2001 110.461 27.1222 111.459C27.0442 112.458 27.0711 113.458 27.2029 114.459C27.3711 115.656 27.5373 116.866 27.7014 118.089C27.8656 119.312 27.6021 120.424 26.9111 121.425C26.2859 122.33 25.4499 122.912 24.4031 123.17C23.3564 123.429 22.4006 123.258 21.5356 122.659C20.4961 121.941 19.5261 121.143 18.6256 120.264C17.7251 119.386 16.7551 118.588 15.7156 117.869C14.6761 117.151 13.5864 116.526 12.4465 115.994C11.3065 115.462 10.2168 114.837 9.17727 114.119Z" fill="black" fill-opacity="0.1"/>
</g>
<g clip-path="url(#clip2_358_63)">
<path d="M332.911 60.3566C333.939 59.8695 334.976 59.8127 336.022 60.1862C337.068 60.5597 337.835 61.2604 338.322 62.2883C338.809 63.3163 338.866 64.3533 338.492 65.3994C338.119 66.4455 337.418 67.212 336.39 67.6991C335.362 68.1861 334.325 68.2429 333.279 67.8694C332.233 67.496 331.467 66.7952 330.98 65.7673C330.493 64.7393 330.436 63.7023 330.809 62.6562C331.183 61.6102 331.883 60.8436 332.911 60.3566ZM329.086 69.3616C330.114 68.8746 331.151 68.8178 332.197 69.1913C333.243 69.5647 334.01 70.2655 334.497 71.2934C334.984 72.3214 335.041 73.3584 334.667 74.4044C334.294 75.4505 333.593 76.2171 332.565 76.7041C331.537 77.1912 330.5 77.248 329.454 76.8745C328.408 76.501 327.642 75.8003 327.154 74.7724C326.667 73.7444 326.611 72.7074 326.984 71.6613C327.358 70.6152 328.058 69.8487 329.086 69.3616ZM320.275 73.5364C321.303 73.0493 322.34 72.9925 323.386 73.366C324.432 73.7395 325.199 74.4402 325.686 75.4681C326.173 76.4961 326.23 77.5331 325.856 78.5792C325.483 79.6253 324.782 80.3918 323.754 80.8789C322.726 81.3659 321.689 81.4227 320.643 81.0492C319.597 80.6758 318.83 79.975 318.343 78.9471C317.856 77.9191 317.8 76.8821 318.173 75.836C318.547 74.79 319.247 74.0234 320.275 73.5364ZM310.884 70.7934C311.912 70.3063 312.949 70.2496 313.995 70.623C315.041 70.9965 315.807 71.6972 316.295 72.7252C316.782 73.7531 316.838 74.7901 316.465 75.8362C316.091 76.8823 315.391 77.6489 314.363 78.1359C313.335 78.623 312.298 78.6797 311.252 78.3063C310.206 77.9328 309.439 77.2321 308.952 76.2041C308.465 75.1762 308.408 74.1392 308.782 73.0931C309.155 72.047 309.856 71.2804 310.884 70.7934ZM322.796 47.1675C323.898 46.6456 325.022 46.6297 326.169 47.1197C327.315 47.6096 328.161 48.4305 328.706 49.5823C329.309 50.855 329.401 52.1746 328.984 53.541C328.567 54.9074 328.151 56.2584 327.736 57.5938C327.386 58.6889 327.165 59.8046 327.074 60.9409C326.984 62.0773 326.769 63.2057 326.431 64.3262C326.194 65.2177 325.819 66.0396 325.306 66.792C324.794 67.5444 324.121 68.1177 323.289 68.512C322.457 68.9063 321.593 69.0757 320.698 69.0204C319.803 68.9651 318.935 68.7469 318.095 68.3656C317.039 67.9071 316.033 67.3499 315.077 66.6939C314.121 66.0378 313.103 65.4862 312.023 65.0388C310.726 64.5146 309.417 63.981 308.096 63.4379C306.776 62.8948 305.813 61.9871 305.209 60.7149C304.664 59.5646 304.565 58.39 304.912 57.1912C305.259 55.9924 305.982 55.1328 307.083 54.6124C308.405 53.9862 309.766 53.4759 311.168 53.0816C312.57 52.6872 313.931 52.177 315.253 51.5508C316.574 50.9246 317.832 50.194 319.025 49.3591C320.217 48.5242 321.475 47.7937 322.796 47.1675Z" fill="black" fill-opacity="0.1"/>
</g>
<g clip-path="url(#clip3_358_63)">
<path d="M286.743 27.3501C287.631 26.9292 288.527 26.8802 289.431 27.2029C290.335 27.5255 290.997 28.1309 291.418 29.0191C291.839 29.9072 291.888 30.8032 291.565 31.7069C291.242 32.6107 290.637 33.273 289.749 33.6938C288.861 34.1146 287.965 34.1637 287.061 33.841C286.157 33.5183 285.495 32.9129 285.074 32.0248C284.653 31.1367 284.604 30.2407 284.927 29.3369C285.249 28.4331 285.855 27.7709 286.743 27.3501ZM283.438 35.1302C284.326 34.7094 285.222 34.6604 286.126 34.983C287.03 35.3057 287.692 35.9111 288.113 36.7993C288.534 37.6874 288.583 38.5833 288.26 39.4871C287.937 40.3909 287.332 41.0532 286.444 41.474C285.556 41.8948 284.66 41.9439 283.756 41.6212C282.852 41.2985 282.19 40.6931 281.769 39.805C281.348 38.9169 281.299 38.0209 281.622 37.1171C281.945 36.2133 282.55 35.551 283.438 35.1302ZM275.826 38.7371C276.714 38.3163 277.61 38.2673 278.514 38.5899C279.417 38.9126 280.08 39.518 280.5 40.4061C280.921 41.2943 280.97 42.1902 280.648 43.094C280.325 43.9978 279.719 44.6601 278.831 45.0809C277.943 45.5017 277.047 45.5508 276.143 45.2281C275.24 44.9054 274.577 44.3 274.157 43.4119C273.736 42.5237 273.687 41.6278 274.009 40.724C274.332 39.8202 274.938 39.1579 275.826 38.7371ZM267.712 36.3673C268.6 35.9465 269.496 35.8974 270.4 36.2201C271.303 36.5427 271.966 37.1481 272.386 38.0363C272.807 38.9244 272.856 39.8204 272.534 40.7242C272.211 41.6279 271.606 42.2902 270.717 42.711C269.829 43.1318 268.933 43.1809 268.03 42.8582C267.126 42.5355 266.463 41.9301 266.043 41.042C265.622 40.1539 265.573 39.2579 265.895 38.3541C266.218 37.4504 266.824 36.7881 267.712 36.3673ZM278.004 15.955C278.955 15.5041 279.926 15.4903 280.917 15.9137C281.908 16.337 282.639 17.0462 283.109 18.0413C283.63 19.1409 283.711 20.281 283.35 21.4615C282.99 22.6421 282.63 23.8093 282.272 24.9631C281.969 25.9092 281.779 26.8731 281.7 27.8549C281.621 28.8368 281.436 29.8117 281.144 30.7798C280.939 31.55 280.615 32.2601 280.172 32.9101C279.73 33.5602 279.149 34.0555 278.43 34.3962C277.711 34.7368 276.964 34.8833 276.191 34.8355C275.417 34.7877 274.668 34.5991 273.942 34.2697C273.029 33.8736 272.16 33.3921 271.334 32.8254C270.509 32.2586 269.629 31.7819 268.696 31.3954C267.575 30.9425 266.444 30.4815 265.303 30.0123C264.162 29.543 263.331 28.7588 262.809 27.6597C262.338 26.6658 262.253 25.651 262.552 24.6153C262.852 23.5795 263.477 22.8368 264.428 22.3872C265.57 21.8462 266.746 21.4053 267.957 21.0646C269.168 20.7239 270.344 20.2831 271.486 19.742C272.628 19.201 273.714 18.5698 274.745 17.8485C275.776 17.1272 276.862 16.496 278.004 15.955Z" fill="black" fill-opacity="0.1"/>
</g>
<path d="M163.261 149.171C166.088 148.966 167.529 144.707 167.339 142.097C167.182 139.922 165.905 137.39 163.73 137.548C160.902 137.753 159.462 142.012 159.651 144.622C159.809 146.798 161.086 149.329 163.261 149.171ZM154.995 149.771C157.17 149.613 158.069 146.924 157.911 144.749C157.706 141.921 155.666 137.915 152.838 138.12C150.663 138.277 149.765 140.966 149.923 143.142C149.91 145.985 151.95 149.992 154.995 149.771ZM170.933 146.428C168.106 146.633 166.432 150.69 166.637 153.518C166.779 155.475 167.791 157.37 169.749 157.228C172.577 157.023 174.25 152.966 174.045 150.138C173.903 148.18 172.673 146.302 170.933 146.428ZM152.499 154.543C152.294 151.716 149.835 147.958 147.225 148.148C145.267 148.29 144.539 150.31 144.681 152.268C144.886 155.096 147.345 158.853 149.955 158.664C151.913 158.522 152.641 156.501 152.499 154.543ZM159.428 153.604C155.078 153.919 149.71 161.306 150.057 166.091C150.215 168.266 151.785 168.808 153.525 168.682C156.135 168.492 157.966 166.61 160.359 166.437C162.534 166.279 164.618 167.877 167.01 167.703C168.75 167.577 170.677 167 170.503 164.608C170.156 159.822 163.778 153.288 159.428 153.604Z" fill="black" fill-opacity="0.1"/>
<path d="M206.107 166.678C208.228 166.524 209.308 163.33 209.166 161.372C209.048 159.74 208.09 157.841 206.458 157.96C204.337 158.114 203.257 161.308 203.399 163.266C203.517 164.898 204.475 166.797 206.107 166.678ZM199.907 167.128C201.538 167.01 202.212 164.993 202.094 163.361C201.94 161.24 200.41 158.235 198.289 158.388C196.657 158.507 195.983 160.524 196.102 162.155C196.092 164.288 197.622 167.294 199.907 167.128ZM211.862 164.621C209.741 164.774 208.486 167.818 208.64 169.939C208.746 171.407 209.505 172.828 210.974 172.722C213.095 172.568 214.35 169.525 214.196 167.404C214.09 165.935 213.167 164.526 211.862 164.621ZM198.034 170.708C197.88 168.587 196.036 165.769 194.078 165.911C192.609 166.017 192.063 167.533 192.17 169.001C192.324 171.123 194.168 173.941 196.126 173.799C197.595 173.692 198.141 172.177 198.034 170.708ZM203.232 170.003C199.968 170.24 195.942 175.781 196.202 179.37C196.321 181.002 197.498 181.408 198.803 181.314C200.761 181.172 202.135 179.76 203.93 179.63C205.562 179.511 207.125 180.71 208.919 180.58C210.225 180.485 211.669 180.052 211.539 178.258C211.279 174.668 206.495 169.766 203.232 170.003Z" fill="black" fill-opacity="0.1"/>
<defs>
<clipPath id="clip0_358_63">
<rect width="39" height="39" fill="white" transform="translate(25.3625 24) rotate(34.648)"/>
</clipPath>
<clipPath id="clip1_358_63">
<rect width="33.6952" height="33.6952" fill="white" transform="translate(19.1567 83.2565) rotate(34.648)"/>
</clipPath>
<clipPath id="clip2_358_63">
<rect width="39" height="39" fill="white" transform="translate(347.956 75.0311) rotate(154.648)"/>
</clipPath>
<clipPath id="clip3_358_63">
<rect width="33.6952" height="33.6952" fill="white" transform="translate(299.741 40.0286) rotate(154.648)"/>
</clipPath>
</defs>
</svg>
