<svg width="1191" height="221" viewBox="0 0 1191 221" fill="none" xmlns="http://www.w3.org/2000/svg">
<g clip-path="url(#clip0_358_63)">
<path d="M20.1764 45.3664C19.2406 44.7197 18.673 43.85 18.4734 42.7573C18.2738 41.6647 18.4973 40.6505 19.144 39.7147C19.7907 38.7789 20.6604 38.2112 21.7531 38.0116C22.8458 37.812 23.86 38.0356 24.7958 38.6823C25.7315 39.329 26.2992 40.1987 26.4988 41.2913C26.6984 42.384 26.4749 43.3982 25.8281 44.334C25.1814 45.2698 24.3118 45.8375 23.2191 46.0371C22.1264 46.2367 21.1122 46.0131 20.1764 45.3664ZM29.8876 44.1765C28.9518 43.5298 28.3841 42.6601 28.1845 41.5675C27.9849 40.4748 28.2085 39.4606 28.8552 38.5248C29.5019 37.589 30.3716 37.0213 31.4643 36.8217C32.5569 36.6221 33.5712 36.8457 34.5069 37.4924C35.4427 38.1391 36.0104 39.0088 36.21 40.1015C36.4096 41.1941 36.186 42.2083 35.5393 43.1441C34.8926 44.0799 34.0229 44.6476 32.9303 44.8472C31.8376 45.0468 30.8234 44.8232 29.8876 44.1765ZM37.9085 49.7197C36.9728 49.073 36.4051 48.2033 36.2055 47.1107C36.0059 46.018 36.2294 45.0038 36.8761 44.068C37.5228 43.1322 38.3925 42.5645 39.4852 42.3649C40.5779 42.1653 41.5921 42.3889 42.5279 43.0356C43.4636 43.6823 44.0313 44.552 44.2309 45.6447C44.4305 46.7373 44.207 47.7515 43.5603 48.6873C42.9135 49.6231 42.0439 50.1908 40.9512 50.3904C39.8585 50.59 38.8443 50.3664 37.9085 49.7197ZM40.2288 59.2244C39.293 58.5777 38.7253 57.708 38.5257 56.6153C38.3261 55.5227 38.5497 54.5085 39.1964 53.5727C39.8431 52.6369 40.7128 52.0692 41.8054 51.8696C42.8981 51.67 43.9123 51.8936 44.8481 52.5403C45.7839 53.187 46.3516 54.0567 46.5512 55.1494C46.7508 56.242 46.5272 57.2562 45.8805 58.192C45.2338 59.1278 44.3641 59.6955 43.2714 59.8951C42.1788 60.0947 41.1645 59.8711 40.2288 59.2244ZM13.8119 60.7209C12.8093 60.028 12.2335 59.0625 12.0844 57.8243C11.9353 56.5862 12.2234 55.4434 12.9486 54.3959C13.7492 53.2373 14.8455 52.497 16.2375 52.175C17.6294 51.853 19.0073 51.5378 20.3714 51.2295C21.4948 50.9853 22.5714 50.6185 23.601 50.1291C24.6306 49.6397 25.7151 49.2613 26.8546 48.994C27.7451 48.7534 28.6443 48.667 29.5522 48.7348C30.4601 48.8026 31.2928 49.0982 32.0503 49.6218C32.8079 50.1453 33.3865 50.8086 33.7863 51.6116C34.186 52.4146 34.4308 53.2751 34.5207 54.1932C34.6518 55.3373 34.6722 56.4872 34.582 57.6429C34.4917 58.7987 34.5229 59.956 34.6754 61.1149C34.8701 62.5005 35.0624 63.9009 35.2524 65.3161C35.4424 66.7314 35.1375 68.0186 34.3377 69.1778C33.614 70.225 32.6464 70.8981 31.4349 71.1973C30.2234 71.4965 29.117 71.2995 28.1159 70.6063C26.9128 69.7748 25.7901 68.8508 24.7478 67.8342C23.7055 66.8176 22.5828 65.8935 21.3797 65.0621C20.1765 64.2306 18.9152 63.5071 17.5958 62.8915C16.2764 62.2759 15.0151 61.5524 13.8119 60.7209Z" fill="black" fill-opacity="0.1"/>
</g>
<g clip-path="url(#clip1_358_63)">
<path d="M14.6761 101.853C13.8676 101.294 13.3771 100.543 13.2047 99.5985C13.0322 98.6544 13.2254 97.7782 13.7841 96.9697C14.3428 96.1612 15.0942 95.6707 16.0383 95.4983C16.9823 95.3258 17.8586 95.519 18.6671 96.0777C19.4756 96.6365 19.966 97.3879 20.1385 98.3319C20.3109 99.2759 20.1178 100.152 19.559 100.961C19.0003 101.769 18.2489 102.26 17.3049 102.432C16.3608 102.605 15.4846 102.411 14.6761 101.853ZM23.0663 100.825C22.2578 100.266 21.7674 99.5145 21.5949 98.5705C21.4225 97.6264 21.6156 96.7501 22.1743 95.9417C22.7331 95.1332 23.4845 94.6427 24.4285 94.4702C25.3726 94.2978 26.2488 94.491 27.0573 95.0497C27.8658 95.6084 28.3563 96.3598 28.5287 97.3039C28.7012 98.2479 28.508 99.1242 27.9493 99.9327C27.3905 100.741 26.6391 101.232 25.6951 101.404C24.7511 101.577 23.8748 101.383 23.0663 100.825ZM29.9962 105.614C29.1877 105.055 28.6973 104.304 28.5248 103.36C28.3524 102.416 28.5455 101.539 29.1043 100.731C29.663 99.9224 30.4144 99.4319 31.3584 99.2595C32.3025 99.087 33.1787 99.2802 33.9872 99.8389C34.7957 100.398 35.2862 101.149 35.4586 102.093C35.6311 103.037 35.4379 103.913 34.8792 104.722C34.3205 105.53 33.5691 106.021 32.625 106.193C31.681 106.366 30.8047 106.173 29.9962 105.614ZM32.0009 113.826C31.1924 113.267 30.7019 112.516 30.5295 111.572C30.357 110.627 30.5502 109.751 31.1089 108.943C31.6676 108.134 32.419 107.644 33.3631 107.471C34.3071 107.299 35.1834 107.492 35.9919 108.051C36.8004 108.609 37.2908 109.361 37.4633 110.305C37.6357 111.249 37.4426 112.125 36.8838 112.934C36.3251 113.742 35.5737 114.233 34.6297 114.405C33.6856 114.578 32.8094 114.384 32.0009 113.826ZM9.17727 115.119C8.31103 114.52 7.81351 113.686 7.6847 112.616C7.5559 111.546 7.80478 110.559 8.43134 109.654C9.12311 108.653 10.0703 108.013 11.2729 107.735C12.4755 107.457 13.666 107.185 14.8445 106.918C15.8151 106.707 16.7452 106.39 17.6348 105.968C18.5244 105.545 19.4614 105.218 20.4459 104.987C21.2152 104.779 21.9921 104.704 22.7765 104.763C23.5609 104.821 24.2804 105.077 24.9349 105.529C25.5894 105.982 26.0893 106.555 26.4347 107.248C26.7801 107.942 26.9916 108.686 27.0692 109.479C27.1825 110.467 27.2001 111.461 27.1222 112.459C27.0442 113.458 27.0711 114.458 27.2029 115.459C27.3711 116.656 27.5373 117.866 27.7014 119.089C27.8656 120.312 27.6021 121.424 26.9111 122.425C26.2859 123.33 25.4499 123.912 24.4031 124.17C23.3564 124.429 22.4006 124.258 21.5356 123.659C20.4961 122.941 19.5261 122.143 18.6256 121.264C17.7251 120.386 16.7551 119.588 15.7156 118.869C14.6761 118.151 13.5864 117.526 12.4465 116.994C11.3065 116.462 10.2168 115.837 9.17727 115.119Z" fill="black" fill-opacity="0.1"/>
</g>
<g clip-path="url(#clip2_358_63)">
<path d="M332.911 61.3566C333.939 60.8695 334.976 60.8127 336.022 61.1862C337.068 61.5597 337.835 62.2604 338.322 63.2883C338.809 64.3163 338.866 65.3533 338.492 66.3994C338.119 67.4455 337.418 68.212 336.39 68.6991C335.362 69.1861 334.325 69.2429 333.279 68.8694C332.233 68.496 331.467 67.7952 330.98 66.7673C330.493 65.7393 330.436 64.7023 330.809 63.6562C331.183 62.6102 331.883 61.8436 332.911 61.3566ZM329.086 70.3616C330.114 69.8746 331.151 69.8178 332.197 70.1913C333.243 70.5647 334.01 71.2655 334.497 72.2934C334.984 73.3214 335.041 74.3584 334.667 75.4044C334.294 76.4505 333.593 77.2171 332.565 77.7041C331.537 78.1912 330.5 78.248 329.454 77.8745C328.408 77.501 327.642 76.8003 327.154 75.7724C326.667 74.7444 326.611 73.7074 326.984 72.6613C327.358 71.6152 328.058 70.8487 329.086 70.3616ZM320.275 74.5364C321.303 74.0493 322.34 73.9925 323.386 74.366C324.432 74.7395 325.199 75.4402 325.686 76.4681C326.173 77.4961 326.23 78.5331 325.856 79.5792C325.483 80.6253 324.782 81.3918 323.754 81.8789C322.726 82.3659 321.689 82.4227 320.643 82.0492C319.597 81.6758 318.83 80.975 318.343 79.9471C317.856 78.9191 317.8 77.8821 318.173 76.836C318.547 75.79 319.247 75.0234 320.275 74.5364ZM310.884 71.7934C311.912 71.3063 312.949 71.2496 313.995 71.623C315.041 71.9965 315.807 72.6972 316.295 73.7252C316.782 74.7531 316.838 75.7901 316.465 76.8362C316.091 77.8823 315.391 78.6489 314.363 79.1359C313.335 79.623 312.298 79.6797 311.252 79.3063C310.206 78.9328 309.439 78.2321 308.952 77.2041C308.465 76.1762 308.408 75.1392 308.782 74.0931C309.155 73.047 309.856 72.2804 310.884 71.7934ZM322.796 48.1675C323.898 47.6456 325.022 47.6297 326.169 48.1197C327.315 48.6096 328.161 49.4305 328.706 50.5823C329.309 51.855 329.401 53.1746 328.984 54.541C328.567 55.9074 328.151 57.2584 327.736 58.5938C327.386 59.6889 327.165 60.8046 327.074 61.9409C326.984 63.0773 326.769 64.2057 326.431 65.3262C326.194 66.2177 325.819 67.0396 325.306 67.792C324.794 68.5444 324.121 69.1177 323.289 69.512C322.457 69.9063 321.593 70.0757 320.698 70.0204C319.803 69.9651 318.935 69.7469 318.095 69.3656C317.039 68.9071 316.033 68.3499 315.077 67.6939C314.121 67.0378 313.103 66.4862 312.023 66.0388C310.726 65.5146 309.417 64.981 308.096 64.4379C306.776 63.8948 305.813 62.9871 305.209 61.7149C304.664 60.5646 304.565 59.39 304.912 58.1912C305.259 56.9924 305.982 56.1328 307.083 55.6124C308.405 54.9862 309.766 54.4759 311.168 54.0816C312.57 53.6872 313.931 53.177 315.253 52.5508C316.574 51.9246 317.832 51.194 319.025 50.3591C320.217 49.5242 321.475 48.7937 322.796 48.1675Z" fill="black" fill-opacity="0.1"/>
</g>
<g clip-path="url(#clip3_358_63)">
<path d="M286.743 28.3501C287.631 27.9292 288.527 27.8802 289.431 28.2029C290.335 28.5255 290.997 29.1309 291.418 30.0191C291.839 30.9072 291.888 31.8032 291.565 32.7069C291.242 33.6107 290.637 34.273 289.749 34.6938C288.861 35.1146 287.965 35.1637 287.061 34.841C286.157 34.5183 285.495 33.9129 285.074 33.0248C284.653 32.1367 284.604 31.2407 284.927 30.3369C285.249 29.4331 285.855 28.7709 286.743 28.3501ZM283.438 36.1302C284.326 35.7094 285.222 35.6604 286.126 35.983C287.03 36.3057 287.692 36.9111 288.113 37.7993C288.534 38.6874 288.583 39.5833 288.26 40.4871C287.937 41.3909 287.332 42.0532 286.444 42.474C285.556 42.8948 284.66 42.9439 283.756 42.6212C282.852 42.2985 282.19 41.6931 281.769 40.805C281.348 39.9169 281.299 39.0209 281.622 38.1171C281.945 37.2133 282.55 36.551 283.438 36.1302ZM275.826 39.7371C276.714 39.3163 277.61 39.2673 278.514 39.5899C279.417 39.9126 280.08 40.518 280.5 41.4061C280.921 42.2943 280.97 43.1902 280.648 44.094C280.325 44.9978 279.719 45.6601 278.831 46.0809C277.943 46.5017 277.047 46.5508 276.143 46.2281C275.24 45.9054 274.577 45.3 274.157 44.4119C273.736 43.5237 273.687 42.6278 274.009 41.724C274.332 40.8202 274.938 40.1579 275.826 39.7371ZM267.712 37.3673C268.6 36.9465 269.496 36.8974 270.4 37.2201C271.303 37.5427 271.966 38.1481 272.386 39.0363C272.807 39.9244 272.856 40.8204 272.534 41.7242C272.211 42.6279 271.606 43.2902 270.717 43.711C269.829 44.1318 268.933 44.1809 268.03 43.8582C267.126 43.5355 266.463 42.9301 266.043 42.042C265.622 41.1539 265.573 40.2579 265.895 39.3541C266.218 38.4504 266.824 37.7881 267.712 37.3673ZM278.004 16.955C278.955 16.5041 279.926 16.4903 280.917 16.9137C281.908 17.337 282.639 18.0462 283.109 19.0413C283.63 20.1409 283.711 21.281 283.35 22.4615C282.99 23.6421 282.63 24.8093 282.272 25.9631C281.969 26.9092 281.779 27.8731 281.7 28.8549C281.621 29.8368 281.436 30.8117 281.144 31.7798C280.939 32.55 280.615 33.2601 280.172 33.9101C279.73 34.5602 279.149 35.0555 278.43 35.3962C277.711 35.7368 276.964 35.8833 276.191 35.8355C275.417 35.7877 274.668 35.5991 273.942 35.2697C273.029 34.8736 272.16 34.3921 271.334 33.8254C270.509 33.2586 269.629 32.7819 268.696 32.3954C267.575 31.9425 266.444 31.4815 265.303 31.0123C264.162 30.543 263.331 29.7588 262.809 28.6597C262.338 27.6658 262.253 26.651 262.552 25.6153C262.852 24.5795 263.477 23.8368 264.428 23.3872C265.57 22.8462 266.746 22.4053 267.957 22.0646C269.168 21.7239 270.344 21.2831 271.486 20.742C272.628 20.201 273.714 19.5698 274.745 18.8485C275.776 18.1272 276.862 17.496 278.004 16.955Z" fill="black" fill-opacity="0.1"/>
</g>
<g clip-path="url(#clip4_358_63)">
<path d="M1162.91 60.3566C1163.94 59.8695 1164.98 59.8127 1166.02 60.1862C1167.07 60.5597 1167.83 61.2604 1168.32 62.2883C1168.81 63.3163 1168.87 64.3533 1168.49 65.3994C1168.12 66.4455 1167.42 67.212 1166.39 67.6991C1165.36 68.1861 1164.33 68.2429 1163.28 67.8694C1162.23 67.496 1161.47 66.7952 1160.98 65.7673C1160.49 64.7393 1160.44 63.7023 1160.81 62.6562C1161.18 61.6102 1161.88 60.8436 1162.91 60.3566ZM1159.09 69.3616C1160.11 68.8746 1161.15 68.8178 1162.2 69.1913C1163.24 69.5647 1164.01 70.2655 1164.5 71.2934C1164.98 72.3214 1165.04 73.3584 1164.67 74.4044C1164.29 75.4505 1163.59 76.2171 1162.56 76.7041C1161.54 77.1912 1160.5 77.248 1159.45 76.8745C1158.41 76.501 1157.64 75.8003 1157.15 74.7724C1156.67 73.7444 1156.61 72.7074 1156.98 71.6613C1157.36 70.6152 1158.06 69.8487 1159.09 69.3616ZM1150.27 73.5364C1151.3 73.0493 1152.34 72.9925 1153.39 73.366C1154.43 73.7395 1155.2 74.4402 1155.69 75.4681C1156.17 76.4961 1156.23 77.5331 1155.86 78.5792C1155.48 79.6253 1154.78 80.3918 1153.75 80.8789C1152.73 81.3659 1151.69 81.4227 1150.64 81.0492C1149.6 80.6758 1148.83 79.975 1148.34 78.9471C1147.86 77.9191 1147.8 76.8821 1148.17 75.836C1148.55 74.79 1149.25 74.0234 1150.27 73.5364ZM1140.88 70.7934C1141.91 70.3063 1142.95 70.2496 1143.99 70.623C1145.04 70.9965 1145.81 71.6972 1146.29 72.7252C1146.78 73.7531 1146.84 74.7901 1146.46 75.8362C1146.09 76.8823 1145.39 77.6489 1144.36 78.1359C1143.33 78.623 1142.3 78.6797 1141.25 78.3063C1140.21 77.9328 1139.44 77.2321 1138.95 76.2041C1138.46 75.1762 1138.41 74.1392 1138.78 73.0931C1139.15 72.047 1139.86 71.2804 1140.88 70.7934ZM1152.8 47.1675C1153.9 46.6456 1155.02 46.6297 1156.17 47.1197C1157.32 47.6096 1158.16 48.4305 1158.71 49.5823C1159.31 50.855 1159.4 52.1746 1158.98 53.541C1158.57 54.9074 1158.15 56.2584 1157.74 57.5938C1157.39 58.6889 1157.17 59.8046 1157.07 60.9409C1156.98 62.0773 1156.77 63.2057 1156.43 64.3262C1156.19 65.2177 1155.82 66.0396 1155.31 66.792C1154.79 67.5444 1154.12 68.1177 1153.29 68.512C1152.46 68.9063 1151.59 69.0757 1150.7 69.0204C1149.8 68.9651 1148.93 68.7469 1148.09 68.3656C1147.04 67.9071 1146.03 67.3499 1145.08 66.6939C1144.12 66.0378 1143.1 65.4862 1142.02 65.0388C1140.73 64.5146 1139.42 63.981 1138.1 63.4379C1136.78 62.8948 1135.81 61.9871 1135.21 60.7149C1134.66 59.5646 1134.56 58.39 1134.91 57.1912C1135.26 55.9924 1135.98 55.1328 1137.08 54.6124C1138.4 53.9862 1139.77 53.4759 1141.17 53.0816C1142.57 52.6872 1143.93 52.177 1145.25 51.5508C1146.57 50.9246 1147.83 50.194 1149.02 49.3591C1150.22 48.5242 1151.47 47.7937 1152.8 47.1675Z" fill="black" fill-opacity="0.1"/>
</g>
<g clip-path="url(#clip5_358_63)">
<path d="M1116.74 27.3501C1117.63 26.9292 1118.53 26.8802 1119.43 27.2029C1120.33 27.5255 1121 28.1309 1121.42 29.0191C1121.84 29.9072 1121.89 30.8032 1121.56 31.7069C1121.24 32.6107 1120.64 33.273 1119.75 33.6938C1118.86 34.1146 1117.96 34.1637 1117.06 33.841C1116.16 33.5183 1115.49 32.9129 1115.07 32.0248C1114.65 31.1367 1114.6 30.2407 1114.93 29.3369C1115.25 28.4331 1115.85 27.7709 1116.74 27.3501ZM1113.44 35.1302C1114.33 34.7094 1115.22 34.6604 1116.13 34.983C1117.03 35.3057 1117.69 35.9111 1118.11 36.7993C1118.53 37.6874 1118.58 38.5833 1118.26 39.4871C1117.94 40.3909 1117.33 41.0532 1116.44 41.474C1115.56 41.8948 1114.66 41.9439 1113.76 41.6212C1112.85 41.2985 1112.19 40.6931 1111.77 39.805C1111.35 38.9169 1111.3 38.0209 1111.62 37.1171C1111.94 36.2133 1112.55 35.551 1113.44 35.1302ZM1105.83 38.7371C1106.71 38.3163 1107.61 38.2673 1108.51 38.5899C1109.42 38.9126 1110.08 39.518 1110.5 40.4061C1110.92 41.2943 1110.97 42.1902 1110.65 43.094C1110.32 43.9978 1109.72 44.6601 1108.83 45.0809C1107.94 45.5017 1107.05 45.5508 1106.14 45.2281C1105.24 44.9054 1104.58 44.3 1104.16 43.4119C1103.74 42.5237 1103.69 41.6278 1104.01 40.724C1104.33 39.8202 1104.94 39.1579 1105.83 38.7371ZM1097.71 36.3673C1098.6 35.9465 1099.5 35.8974 1100.4 36.2201C1101.3 36.5427 1101.97 37.1481 1102.39 38.0363C1102.81 38.9244 1102.86 39.8204 1102.53 40.7242C1102.21 41.6279 1101.61 42.2902 1100.72 42.711C1099.83 43.1318 1098.93 43.1809 1098.03 42.8582C1097.13 42.5355 1096.46 41.9301 1096.04 41.042C1095.62 40.1539 1095.57 39.2579 1095.9 38.3541C1096.22 37.4504 1096.82 36.7881 1097.71 36.3673ZM1108 15.955C1108.95 15.5041 1109.93 15.4903 1110.92 15.9137C1111.91 16.337 1112.64 17.0462 1113.11 18.0413C1113.63 19.1409 1113.71 20.281 1113.35 21.4615C1112.99 22.6421 1112.63 23.8093 1112.27 24.9631C1111.97 25.9092 1111.78 26.8731 1111.7 27.8549C1111.62 28.8368 1111.44 29.8117 1111.14 30.7798C1110.94 31.55 1110.61 32.2601 1110.17 32.9101C1109.73 33.5602 1109.15 34.0555 1108.43 34.3962C1107.71 34.7368 1106.96 34.8833 1106.19 34.8355C1105.42 34.7877 1104.67 34.5991 1103.94 34.2697C1103.03 33.8736 1102.16 33.3921 1101.33 32.8254C1100.51 32.2586 1099.63 31.7819 1098.7 31.3954C1097.57 30.9425 1096.44 30.4815 1095.3 30.0123C1094.16 29.543 1093.33 28.7588 1092.81 27.6597C1092.34 26.6658 1092.25 25.651 1092.55 24.6153C1092.85 23.5795 1093.48 22.8368 1094.43 22.3872C1095.57 21.8462 1096.75 21.4053 1097.96 21.0646C1099.17 20.7239 1100.34 20.2831 1101.49 19.742C1102.63 19.201 1103.71 18.5698 1104.74 17.8485C1105.78 17.1272 1106.86 16.496 1108 15.955Z" fill="black" fill-opacity="0.1"/>
</g>
<g clip-path="url(#clip6_358_63)">
<path d="M985.443 160.641C987.503 158.693 985.923 154.484 984.125 152.582C982.627 150.998 980.036 149.845 978.452 151.344C976.392 153.292 977.971 157.501 979.769 159.403C981.268 160.987 983.858 162.139 985.443 160.641ZM979.422 166.335C981.006 164.837 980 162.186 978.502 160.601C976.554 158.541 972.439 156.73 970.379 158.678C968.795 160.176 969.801 162.827 971.299 164.411C973.089 166.621 977.203 168.433 979.422 166.335ZM989.649 153.662C987.589 155.61 988.86 159.811 990.808 161.871C992.156 163.297 994.139 164.123 995.565 162.775C997.625 160.827 996.354 156.626 994.406 154.566C993.057 153.14 990.916 152.463 989.649 153.662ZM980.508 171.61C978.56 169.551 974.279 168.197 972.377 169.995C970.951 171.344 971.666 173.369 973.015 174.795C974.962 176.855 979.244 178.209 981.146 176.411C982.572 175.062 981.857 173.037 980.508 171.61ZM985.279 166.499C982.11 169.495 982.627 178.612 985.923 182.098C987.422 183.682 988.981 183.109 990.248 181.91C992.15 180.112 992.377 177.496 994.12 175.847C995.704 174.349 998.329 174.268 1000.07 172.62C1001.34 171.421 1002.47 169.755 1000.82 168.012C997.521 164.526 988.448 163.502 985.279 166.499Z" fill="black" fill-opacity="0.1"/>
</g>
<g clip-path="url(#clip7_358_63)">
<path d="M1029.7 147.089C1031.24 145.627 1030.06 142.47 1028.71 141.044C1027.59 139.855 1025.64 138.991 1024.46 140.115C1022.91 141.576 1024.09 144.733 1025.44 146.16C1026.57 147.348 1028.51 148.213 1029.7 147.089ZM1025.18 151.36C1026.37 150.236 1025.62 148.247 1024.49 147.059C1023.03 145.514 1019.94 144.155 1018.4 145.616C1017.21 146.74 1017.97 148.728 1019.09 149.917C1020.43 151.574 1023.52 152.933 1025.18 151.36ZM1032.85 141.854C1031.31 143.315 1032.26 146.466 1033.72 148.011C1034.74 149.081 1036.22 149.701 1037.29 148.689C1038.84 147.228 1037.88 144.077 1036.42 142.532C1035.41 141.462 1033.81 140.954 1032.85 141.854ZM1026 155.317C1024.54 153.772 1021.32 152.756 1019.9 154.105C1018.83 155.117 1019.36 156.636 1020.38 157.706C1021.84 159.251 1025.05 160.267 1026.48 158.918C1027.55 157.906 1027.01 156.387 1026 155.317ZM1029.58 151.483C1027.2 153.731 1027.59 160.569 1030.06 163.184C1031.18 164.372 1032.35 163.942 1033.3 163.043C1034.73 161.694 1034.9 159.732 1036.21 158.495C1037.4 157.371 1039.37 157.31 1040.67 156.074C1041.62 155.175 1042.47 153.926 1041.23 152.618C1038.76 150.003 1031.95 149.235 1029.58 151.483Z" fill="black" fill-opacity="0.1"/>
</g>
<path d="M893.261 54.171C896.088 53.9659 897.529 49.7069 897.339 47.0968C897.182 44.9216 895.905 42.3904 893.73 42.5482C890.902 42.7533 889.462 47.0123 889.651 49.6224C889.809 51.7975 891.086 54.3288 893.261 54.171ZM884.995 54.7706C887.17 54.6128 888.069 51.9238 887.911 49.7487C887.706 46.921 885.666 42.9145 882.838 43.1196C880.663 43.2774 879.765 45.9665 879.923 48.1416C879.91 50.985 881.95 54.9915 884.995 54.7706ZM900.933 51.4278C898.106 51.633 896.432 55.6902 896.637 58.5179C896.779 60.4755 897.791 62.37 899.749 62.2279C902.577 62.0228 904.25 57.9656 904.045 55.1379C903.903 53.1803 902.673 51.3016 900.933 51.4278ZM882.499 59.5435C882.294 56.7158 879.835 52.9584 877.225 53.1478C875.267 53.2898 874.539 55.3105 874.681 57.2681C874.886 60.0958 877.345 63.8532 879.955 63.6638C881.913 63.5218 882.641 61.5011 882.499 59.5435ZM889.428 58.6035C885.078 58.9191 879.71 66.3055 880.057 71.0908C880.215 73.2659 881.785 73.808 883.525 73.6818C886.135 73.4924 887.966 71.6103 890.359 71.4368C892.534 71.279 894.618 72.8771 897.01 72.7035C898.75 72.5773 900.677 72.0002 900.503 69.6076C900.156 64.8223 893.778 58.288 889.428 58.6035Z" fill="black" fill-opacity="0.1"/>
<path d="M936.107 71.6782C938.228 71.5244 939.308 68.3296 939.166 66.3717C939.048 64.7401 938.09 62.8414 936.459 62.9597C934.338 63.1136 933.257 66.3083 933.399 68.2663C933.518 69.8979 934.475 71.7966 936.107 71.6782ZM929.907 72.128C931.538 72.0097 932.212 69.9925 932.094 68.3609C931.94 66.2399 930.41 63.2345 928.289 63.3884C926.657 63.5067 925.983 65.5238 926.102 67.1554C926.092 69.2884 927.623 72.2937 929.907 72.128ZM941.862 69.6205C939.741 69.7744 938.486 72.8178 938.64 74.9389C938.746 76.4073 939.505 77.8284 940.974 77.7219C943.095 77.568 944.35 74.5246 944.197 72.4036C944.09 70.9351 943.168 69.5258 941.862 69.6205ZM928.034 75.7083C927.88 73.5872 926.036 70.7686 924.078 70.9107C922.609 71.0172 922.063 72.533 922.17 74.0014C922.324 76.1225 924.168 78.941 926.126 78.799C927.595 78.6925 928.141 77.1767 928.034 75.7083ZM933.232 75.0032C929.969 75.2399 925.942 80.7806 926.202 84.3701C926.321 86.0017 927.498 86.4084 928.804 86.3137C930.762 86.1716 932.135 84.7598 933.93 84.6296C935.562 84.5113 937.125 85.71 938.92 85.5798C940.225 85.4851 941.67 85.0523 941.54 83.2575C941.279 79.668 936.495 74.7665 933.232 75.0032Z" fill="black" fill-opacity="0.1"/>
<path d="M163.261 150.171C166.088 149.966 167.529 145.707 167.339 143.097C167.182 140.922 165.905 138.39 163.73 138.548C160.902 138.753 159.462 143.012 159.651 145.622C159.809 147.798 161.086 150.329 163.261 150.171ZM154.995 150.771C157.17 150.613 158.069 147.924 157.911 145.749C157.706 142.921 155.666 138.915 152.838 139.12C150.663 139.277 149.765 141.966 149.923 144.142C149.91 146.985 151.95 150.992 154.995 150.771ZM170.933 147.428C168.106 147.633 166.432 151.69 166.637 154.518C166.779 156.475 167.791 158.37 169.749 158.228C172.577 158.023 174.25 153.966 174.045 151.138C173.903 149.18 172.673 147.302 170.933 147.428ZM152.499 155.543C152.294 152.716 149.835 148.958 147.225 149.148C145.267 149.29 144.539 151.31 144.681 153.268C144.886 156.096 147.345 159.853 149.955 159.664C151.913 159.522 152.641 157.501 152.499 155.543ZM159.428 154.604C155.078 154.919 149.71 162.306 150.057 167.091C150.215 169.266 151.785 169.808 153.525 169.682C156.135 169.492 157.966 167.61 160.359 167.437C162.534 167.279 164.618 168.877 167.01 168.703C168.75 168.577 170.677 168 170.503 165.608C170.156 160.822 163.778 154.288 159.428 154.604Z" fill="black" fill-opacity="0.1"/>
<path d="M206.107 167.678C208.228 167.524 209.308 164.33 209.166 162.372C209.048 160.74 208.09 158.841 206.458 158.96C204.337 159.114 203.257 162.308 203.399 164.266C203.517 165.898 204.475 167.797 206.107 167.678ZM199.907 168.128C201.538 168.01 202.212 165.993 202.094 164.361C201.94 162.24 200.41 159.235 198.289 159.388C196.657 159.507 195.983 161.524 196.102 163.155C196.092 165.288 197.622 168.294 199.907 168.128ZM211.862 165.621C209.741 165.774 208.486 168.818 208.64 170.939C208.746 172.407 209.505 173.828 210.974 173.722C213.095 173.568 214.35 170.525 214.196 168.404C214.09 166.935 213.167 165.526 211.862 165.621ZM198.034 171.708C197.88 169.587 196.036 166.769 194.078 166.911C192.609 167.017 192.063 168.533 192.17 170.001C192.324 172.123 194.168 174.941 196.126 174.799C197.595 174.692 198.141 173.177 198.034 171.708ZM203.232 171.003C199.968 171.24 195.942 176.781 196.202 180.37C196.321 182.002 197.498 182.408 198.803 182.314C200.761 182.172 202.135 180.76 203.93 180.63C205.562 180.511 207.125 181.71 208.919 181.58C210.225 181.485 211.669 181.052 211.539 179.258C211.279 175.668 206.495 170.766 203.232 171.003Z" fill="black" fill-opacity="0.1"/>
<defs>
<clipPath id="clip0_358_63">
<rect width="39" height="39" fill="white" transform="translate(25.3625 25) rotate(34.648)"/>
</clipPath>
<clipPath id="clip1_358_63">
<rect width="33.6952" height="33.6952" fill="white" transform="translate(19.1567 84.2565) rotate(34.648)"/>
</clipPath>
<clipPath id="clip2_358_63">
<rect width="39" height="39" fill="white" transform="translate(347.956 76.0311) rotate(154.648)"/>
</clipPath>
<clipPath id="clip3_358_63">
<rect width="33.6952" height="33.6952" fill="white" transform="translate(299.741 41.0286) rotate(154.648)"/>
</clipPath>
<clipPath id="clip4_358_63">
<rect width="39" height="39" fill="white" transform="translate(1177.96 75.0311) rotate(154.648)"/>
</clipPath>
<clipPath id="clip5_358_63">
<rect width="33.6952" height="33.6952" fill="white" transform="translate(1129.74 40.0286) rotate(154.648)"/>
</clipPath>
<clipPath id="clip6_358_63">
<rect width="43.6167" height="43.6167" fill="white" transform="translate(954 165.162) rotate(-43.4002)"/>
</clipPath>
<clipPath id="clip7_358_63">
<rect width="32.7178" height="32.7178" fill="white" transform="translate(1006.11 150.48) rotate(-43.4002)"/>
</clipPath>
</defs>
</svg>
