<svg width="20" height="20" viewBox="0 0 20 20" fill="none" xmlns="http://www.w3.org/2000/svg">
<path d="M9.465 14.9775C9.17006 15.3032 8.9572 15.6947 8.84414 16.1194C8.73108 16.544 8.72109 16.9895 8.815 17.4188C5.61 16.9663 3.75 14.705 3.75 12.5V11.875C3.75 11.3777 3.94754 10.9008 4.29917 10.5492C4.65081 10.1975 5.12772 10 5.625 10H13.1537C13.1787 10.6038 13.4287 11.1888 13.8812 11.6313L14.5287 12.2638C14.3994 12.8182 14.0856 13.3122 13.6387 13.665L12.6575 13.4325C12.2068 13.3261 11.7358 13.3428 11.2937 13.4809C10.8517 13.619 10.4549 13.8734 10.145 14.2175L9.465 14.9775ZM10 1.875C10.9117 1.875 11.786 2.23716 12.4307 2.88182C13.0753 3.52648 13.4375 4.40082 13.4375 5.3125C13.4375 6.22418 13.0753 7.09852 12.4307 7.74318C11.786 8.38784 10.9117 8.75 10 8.75C9.08832 8.75 8.21398 8.38784 7.56932 7.74318C6.92466 7.09852 6.5625 6.22418 6.5625 5.3125C6.5625 4.40082 6.92466 3.52648 7.56932 2.88182C8.21398 2.23716 9.08832 1.875 10 1.875ZM14.48 9.47625L14.8337 8.53875C15.1562 7.68875 16.1612 7.26875 17.0087 7.63L17.4937 7.8375C18.085 8.09 18.575 8.5475 18.6775 9.1625C19.2487 12.5687 16.2925 17.4137 12.89 18.65C12.275 18.8725 11.61 18.7 11.0837 18.3425L10.6512 18.0487C10.4737 17.9291 10.3242 17.7724 10.2131 17.5895C10.1019 17.4065 10.0318 17.2015 10.0076 16.9888C9.98334 16.7761 10.0055 16.5607 10.0726 16.3574C10.1397 16.1541 10.2501 15.9677 10.3962 15.8113L11.0775 15.0525C11.2372 14.8758 11.4413 14.7452 11.6686 14.6742C11.896 14.6032 12.1381 14.5944 12.37 14.6488L13.9012 15.0112C15.115 14.2525 15.7662 13.1863 15.8537 11.8113L14.7562 10.7362C14.5919 10.5763 14.4781 10.3717 14.429 10.1477C14.3799 9.92373 14.3976 9.69025 14.48 9.47625Z" fill="#7B5BFB"/>
</svg>
