<svg width="19" height="19" viewBox="0 0 19 19" fill="none" xmlns="http://www.w3.org/2000/svg">
<path fill-rule="evenodd" clip-rule="evenodd" d="M9.6033 18.3368C10.7461 18.3368 11.8777 18.1118 12.9336 17.6744C13.9894 17.2371 14.9487 16.5961 15.7568 15.788C16.5649 14.9799 17.2059 14.0205 17.6433 12.9647C18.0806 11.9089 18.3057 10.7772 18.3057 9.63443C18.3057 8.49161 18.0806 7.35998 17.6433 6.30415C17.2059 5.24833 16.5649 4.28898 15.7568 3.48089C14.9487 2.67279 13.9894 2.03178 12.9336 1.59444C11.8777 1.1571 10.7461 0.932007 9.6033 0.932007C7.29527 0.932007 5.08178 1.84887 3.44976 3.48089C1.81774 5.11291 0.900879 7.3264 0.900879 9.63443C0.900879 11.9425 1.81774 14.1559 3.44976 15.788C5.08178 17.42 7.29527 18.3368 9.6033 18.3368ZM9.37897 13.1541L14.2136 7.35246L12.7284 6.11478L8.57061 11.1032L6.41918 8.9508L5.05193 10.318L7.95274 13.2189L8.70115 13.9673L9.37897 13.1541Z" fill="#29B01D"/>
</svg>
