<?xml version="1.0" standalone="no"?>
<!DOCTYPE svg PUBLIC "-//W3C//DTD SVG 20010904//EN"
 "http://www.w3.org/TR/2001/REC-SVG-20010904/DTD/svg10.dtd">
<svg version="1.0" xmlns="http://www.w3.org/2000/svg"
 width="24.000000pt" height="24.000000pt" viewBox="0 0 24.000000 24.000000"
 preserveAspectRatio="xMidYMid meet">

<g transform="translate(0.000000,24.000000) scale(0.100000,-0.100000)"
fill="#000000" stroke="none">
<path d="M14 217 c-3 -8 -3 -56 -2 -108 l3 -94 105 0 105 0 3 84 c3 75 1 86
-19 107 -20 22 -31 24 -106 24 -60 0 -85 -4 -89 -13z m66 -27 c0 -28 2 -30 40
-30 38 0 40 2 40 30 0 36 6 37 37 8 20 -19 23 -31 23 -100 0 -63 -3 -78 -15
-78 -10 0 -15 11 -15 35 0 19 -4 35 -8 35 -4 0 -6 -16 -4 -35 l4 -35 -62 0
-62 0 4 35 c2 19 0 35 -4 35 -4 0 -8 -16 -8 -35 0 -24 -5 -35 -15 -35 -12 0
-15 18 -15 100 l0 100 30 0 c27 0 30 -3 30 -30z m70 5 c0 -21 -5 -25 -30 -25
-25 0 -30 4 -30 25 0 21 5 25 30 25 25 0 30 -4 30 -25z"/>
</g>
</svg>
