<svg width="117" height="113" viewBox="0 0 117 113" fill="none" xmlns="http://www.w3.org/2000/svg">
<path d="M46.3414 44.2806C49.0755 44.0823 50.4682 39.9641 50.2851 37.4403C50.1325 35.3371 48.8979 32.8895 46.7946 33.0421C44.0605 33.2405 42.6678 37.3586 42.8509 39.8825C43.0035 41.9857 44.2382 44.4332 46.3414 44.2806ZM38.3492 44.8604C40.4524 44.7078 41.3209 42.1077 41.1683 40.0045C40.97 37.2703 38.9975 33.3963 36.2634 33.5947C34.1602 33.7472 33.2917 36.3474 33.4442 38.4506C33.4323 41.2 35.4047 45.074 38.3492 44.8604ZM53.7603 41.6282C51.0262 41.8265 49.4079 45.7496 49.6063 48.4838C49.7436 50.3766 50.7222 52.2085 52.615 52.0712C55.3492 51.8728 56.9675 47.9498 56.7691 45.2156C56.6318 43.3227 55.4429 41.5061 53.7603 41.6282ZM35.9354 49.4755C35.7371 46.7413 33.3593 43.1081 30.8354 43.2912C28.9425 43.4285 28.2386 45.3824 28.3759 47.2753C28.5742 50.0095 30.9521 53.6427 33.4759 53.4596C35.3688 53.3223 36.0728 51.3684 35.9354 49.4755ZM42.6352 48.5666C38.4288 48.8718 33.2384 56.014 33.574 60.641C33.7266 62.7442 35.2446 63.2684 36.9272 63.1463C39.451 62.9632 41.2218 61.1433 43.5354 60.9755C45.6386 60.8229 47.6535 62.3682 49.967 62.2003C51.6496 62.0783 53.5119 61.5203 53.3441 59.2068C53.0085 54.5798 46.8416 48.2615 42.6352 48.5666Z" fill="black" fill-opacity="0.07"/>
<path d="M87.7711 61.2088C89.822 61.06 90.8667 57.9709 90.7293 56.0777C90.6149 54.5001 89.6887 52.6641 88.1111 52.7785C86.0601 52.9273 85.0154 56.0164 85.1528 57.9096C85.2672 59.4873 86.1934 61.3232 87.7711 61.2088ZM81.776 61.6437C83.3536 61.5292 84.0051 59.5788 83.8907 58.0012C83.7419 55.9502 82.2623 53.0442 80.2114 53.193C78.6337 53.3075 77.9822 55.2579 78.0967 56.8355C78.0877 58.8979 79.5673 61.8039 81.776 61.6437ZM93.3362 59.2191C91.2852 59.3679 90.0713 62.3107 90.2201 64.3616C90.3231 65.7815 91.0572 67.1556 92.4771 67.0526C94.528 66.9038 95.7419 63.9611 95.5931 61.9101C95.4901 60.4902 94.5983 59.1276 93.3362 59.2191ZM79.9654 65.1055C79.8166 63.0546 78.0329 60.3293 76.1397 60.4666C74.7198 60.5696 74.1918 62.0353 74.2948 63.4552C74.4436 65.5061 76.2272 68.2314 78.1204 68.0941C79.5403 67.9911 80.0684 66.5254 79.9654 65.1055ZM84.991 64.4238C81.8357 64.6527 77.9422 70.0102 78.194 73.481C78.3085 75.0587 79.4471 75.4519 80.7093 75.3603C82.6025 75.223 83.9308 73.8578 85.6662 73.7319C87.2439 73.6175 88.7553 74.7766 90.4907 74.6507C91.7529 74.5592 93.1499 74.1406 93.024 72.4052C92.7722 68.9344 88.1463 64.1949 84.991 64.4238Z" fill="black" fill-opacity="0.07"/>
</svg>
