<svg width="391" height="103" viewBox="0 0 391 103" fill="none" xmlns="http://www.w3.org/2000/svg">
<g clip-path="url(#clip0_358_63)">
<path d="M368.911 60.3566C369.939 59.8695 370.976 59.8127 372.022 60.1862C373.068 60.5597 373.835 61.2604 374.322 62.2884C374.809 63.3163 374.866 64.3533 374.492 65.3994C374.119 66.4455 373.418 67.2121 372.39 67.6991C371.362 68.1862 370.325 68.2429 369.279 67.8695C368.233 67.496 367.467 66.7953 366.98 65.7673C366.493 64.7394 366.436 63.7024 366.809 62.6563C367.183 61.6102 367.883 60.8436 368.911 60.3566ZM365.086 69.3617C366.114 68.8746 367.151 68.8178 368.197 69.1913C369.243 69.5648 370.01 70.2655 370.497 71.2934C370.984 72.3214 371.041 73.3584 370.667 74.4045C370.294 75.4506 369.593 76.2171 368.565 76.7042C367.537 77.1912 366.5 77.248 365.454 76.8745C364.408 76.5011 363.642 75.8003 363.154 74.7724C362.667 73.7444 362.611 72.7074 362.984 71.6613C363.358 70.6153 364.058 69.8487 365.086 69.3617ZM356.275 73.5364C357.303 73.0493 358.34 72.9925 359.386 73.366C360.432 73.7395 361.199 74.4402 361.686 75.4682C362.173 76.4961 362.23 77.5331 361.856 78.5792C361.483 79.6253 360.782 80.3919 359.754 80.8789C358.726 81.366 357.689 81.4227 356.643 81.0493C355.597 80.6758 354.83 79.9751 354.343 78.9471C353.856 77.9192 353.8 76.8821 354.173 75.8361C354.547 74.79 355.247 74.0234 356.275 73.5364ZM346.884 70.7934C347.912 70.3064 348.949 70.2496 349.995 70.6231C351.041 70.9965 351.807 71.6973 352.295 72.7252C352.782 73.7532 352.838 74.7902 352.465 75.8362C352.091 76.8823 351.391 77.6489 350.363 78.1359C349.335 78.623 348.298 78.6798 347.252 78.3063C346.206 77.9328 345.439 77.2321 344.952 76.2042C344.465 75.1762 344.408 74.1392 344.782 73.0931C345.155 72.047 345.856 71.2805 346.884 70.7934ZM358.796 47.1675C359.898 46.6457 361.022 46.6297 362.169 47.1197C363.315 47.6097 364.161 48.4305 364.706 49.5823C365.309 50.855 365.401 52.1746 364.984 53.541C364.567 54.9075 364.151 56.2584 363.736 57.5939C363.386 58.6889 363.165 59.8046 363.074 60.941C362.984 62.0774 362.769 63.2058 362.431 64.3263C362.194 65.2177 361.819 66.0397 361.306 66.792C360.794 67.5444 360.121 68.1177 359.289 68.512C358.457 68.9063 357.593 69.0758 356.698 69.0205C355.803 68.9652 354.935 68.7469 354.095 68.3657C353.039 67.9072 352.033 67.3499 351.077 66.6939C350.121 66.0379 349.103 65.4862 348.023 65.0388C346.726 64.5146 345.417 63.981 344.096 63.4379C342.776 62.8948 341.813 61.9872 341.209 60.7149C340.664 59.5646 340.565 58.39 340.912 57.1912C341.259 55.9924 341.982 55.1328 343.083 54.6124C344.405 53.9862 345.766 53.476 347.168 53.0816C348.57 52.6873 349.931 52.177 351.253 51.5508C352.574 50.9246 353.832 50.194 355.025 49.3591C356.217 48.5243 357.475 47.7937 358.796 47.1675Z" fill="black" fill-opacity="0.1"/>
</g>
<g clip-path="url(#clip1_358_63)">
<path d="M322.743 27.3501C323.631 26.9293 324.527 26.8802 325.431 27.2029C326.335 27.5256 326.997 28.131 327.418 29.0191C327.839 29.9072 327.888 30.8032 327.565 31.707C327.242 32.6108 326.637 33.273 325.749 33.6938C324.861 34.1147 323.965 34.1637 323.061 33.841C322.157 33.5184 321.495 32.913 321.074 32.0248C320.653 31.1367 320.604 30.2407 320.927 29.337C321.249 28.4332 321.855 27.7709 322.743 27.3501ZM319.438 35.1303C320.326 34.7094 321.222 34.6604 322.126 34.9831C323.03 35.3057 323.692 35.9111 324.113 36.7993C324.534 37.6874 324.583 38.5834 324.26 39.4872C323.937 40.3909 323.332 41.0532 322.444 41.474C321.556 41.8948 320.66 41.9439 319.756 41.6212C318.852 41.2985 318.19 40.6931 317.769 39.805C317.348 38.9169 317.299 38.0209 317.622 37.1171C317.945 36.2133 318.55 35.5511 319.438 35.1303ZM311.826 38.7371C312.714 38.3163 313.61 38.2673 314.514 38.5899C315.417 38.9126 316.08 39.518 316.5 40.4062C316.921 41.2943 316.97 42.1902 316.648 43.094C316.325 43.9978 315.719 44.6601 314.831 45.0809C313.943 45.5017 313.047 45.5508 312.143 45.2281C311.24 44.9054 310.577 44.3 310.157 43.4119C309.736 42.5238 309.687 41.6278 310.009 40.724C310.332 39.8202 310.938 39.1579 311.826 38.7371ZM303.712 36.3673C304.6 35.9465 305.496 35.8974 306.4 36.2201C307.303 36.5428 307.966 37.1482 308.386 38.0363C308.807 38.9244 308.856 39.8204 308.534 40.7242C308.211 41.628 307.606 42.2902 306.717 42.7111C305.829 43.1319 304.933 43.1809 304.03 42.8582C303.126 42.5356 302.463 41.9302 302.043 41.042C301.622 40.1539 301.573 39.2579 301.895 38.3542C302.218 37.4504 302.824 36.7881 303.712 36.3673ZM314.004 15.955C314.955 15.5041 315.926 15.4903 316.917 15.9137C317.908 16.337 318.639 17.0462 319.109 18.0413C319.63 19.1409 319.711 20.281 319.35 21.4616C318.99 22.6421 318.63 23.8093 318.272 24.9631C317.969 25.9092 317.779 26.8732 317.7 27.855C317.621 28.8368 317.436 29.8117 317.144 30.7798C316.939 31.55 316.615 32.2601 316.172 32.9102C315.73 33.5602 315.149 34.0555 314.43 34.3962C313.711 34.7368 312.964 34.8833 312.191 34.8355C311.417 34.7877 310.668 34.5991 309.942 34.2698C309.029 33.8736 308.16 33.3922 307.334 32.8254C306.509 32.2586 305.629 31.7819 304.696 31.3954C303.575 30.9425 302.444 30.4815 301.303 30.0123C300.162 29.5431 299.331 28.7589 298.809 27.6597C298.338 26.6658 298.253 25.651 298.552 24.6153C298.852 23.5795 299.477 22.8369 300.428 22.3872C301.57 21.8462 302.746 21.4053 303.957 21.0646C305.168 20.7239 306.344 20.2831 307.486 19.742C308.628 19.201 309.714 18.5698 310.745 17.8485C311.776 17.1272 312.862 16.496 314.004 15.955Z" fill="black" fill-opacity="0.1"/>
</g>
<g clip-path="url(#clip2_358_63)">
<path d="M83.4749 44.4055C84.3905 44.8394 85.3143 44.89 86.2461 44.5573C87.1779 44.2246 87.8607 43.6004 88.2946 42.6847C88.7285 41.7691 88.779 40.8453 88.4464 39.9135C88.1137 38.9817 87.4895 38.2989 86.5738 37.865C85.6581 37.4311 84.7344 37.3806 83.8026 37.7132C82.8708 38.0459 82.1879 38.6701 81.7541 39.5858C81.3202 40.5015 81.2696 41.4252 81.6023 42.357C81.935 43.2888 82.5592 43.9717 83.4749 44.4055ZM80.0675 36.384C80.9832 36.8179 81.907 36.8685 82.8388 36.5358C83.7706 36.2031 84.4534 35.5789 84.8873 34.6633C85.3211 33.7476 85.3717 32.8238 85.039 31.892C84.7064 30.9602 84.0822 30.2774 83.1665 29.8435C82.2508 29.4097 81.3271 29.3591 80.3953 29.6918C79.4634 30.0244 78.7806 30.6486 78.3468 31.5643C77.9129 32.48 77.8623 33.4037 78.195 34.3355C78.5277 35.2674 79.1519 35.9502 80.0675 36.384ZM72.2189 32.6653C73.1346 33.0992 74.0583 33.1497 74.9901 32.8171C75.922 32.4844 76.6048 31.8602 77.0386 30.9445C77.4725 30.0288 77.5231 29.1051 77.1904 28.1733C76.8577 27.2415 76.2335 26.5586 75.3179 26.1248C74.4022 25.6909 73.4784 25.6403 72.5466 25.973C71.6148 26.3057 70.932 26.9299 70.4981 27.8456C70.0643 28.7612 70.0137 29.685 70.3464 30.6168C70.679 31.5486 71.3032 32.2314 72.2189 32.6653ZM63.8533 35.1087C64.7689 35.5425 65.6927 35.5931 66.6245 35.2604C67.5563 34.9277 68.2391 34.3036 68.673 33.3879C69.1069 32.4722 69.1574 31.5485 68.8248 30.6166C68.4921 29.6848 67.8679 29.002 66.9522 28.5681C66.0365 28.1343 65.1128 28.0837 64.181 28.4164C63.2492 28.7491 62.5663 29.3732 62.1325 30.2889C61.6986 31.2046 61.648 32.1283 61.9807 33.0602C62.3134 33.992 62.9376 34.6748 63.8533 35.1087ZM74.4645 56.154C75.4456 56.6189 76.4469 56.6331 77.4685 56.1966C78.49 55.7602 79.2433 55.029 79.7284 54.003C80.2655 52.8693 80.3484 51.6939 79.9768 50.4767C79.6053 49.2595 79.2347 48.0561 78.865 46.8665C78.553 45.8911 78.3565 44.8972 78.2755 43.885C78.1945 42.8727 78.0033 41.8675 77.7021 40.8695C77.491 40.0753 77.1571 39.3432 76.7005 38.673C76.2439 38.0028 75.6449 37.4921 74.9036 37.1409C74.1624 36.7897 73.393 36.6387 72.5955 36.688C71.7979 36.7372 71.0251 36.9316 70.2768 37.2712C69.3358 37.6797 68.4396 38.1761 67.5883 38.7604C66.7369 39.3448 65.8302 39.8362 64.8683 40.2347C63.7127 40.7016 62.5467 41.177 61.3703 41.6608C60.1939 42.1445 59.3367 42.953 58.7987 44.0863C58.3132 45.111 58.2248 46.1573 58.5336 47.2251C58.8424 48.293 59.4872 49.0587 60.4678 49.5223C61.6451 50.0801 62.8579 50.5346 64.1064 50.8859C65.3549 51.2372 66.5678 51.6917 67.745 52.2495C68.9223 52.8073 70.0423 53.4581 71.1048 54.2018C72.1673 54.9455 73.2872 55.5962 74.4645 56.154Z" fill="black" fill-opacity="0.1"/>
</g>
<g clip-path="url(#clip3_358_63)">
<path d="M42.3498 73.8069C43.1409 74.1817 43.939 74.2254 44.7441 73.938C45.5492 73.6506 46.1391 73.1113 46.514 72.3202C46.8888 71.5291 46.9325 70.731 46.6451 69.9259C46.3576 69.1208 45.8184 68.5309 45.0272 68.156C44.2361 67.7812 43.438 67.7375 42.633 68.0249C41.8279 68.3123 41.2379 68.8516 40.8631 69.6427C40.4882 70.4339 40.4445 71.232 40.732 72.037C41.0194 72.8421 41.5587 73.4321 42.3498 73.8069ZM39.406 66.8765C40.1971 67.2513 40.9952 67.295 41.8003 67.0076C42.6053 66.7202 43.1953 66.1809 43.5701 65.3898C43.945 64.5987 43.9887 63.8006 43.7012 62.9955C43.4138 62.1904 42.8745 61.6005 42.0834 61.2256C41.2923 60.8508 40.4942 60.8071 39.6891 61.0945C38.884 61.3819 38.2941 61.9212 37.9192 62.7123C37.5444 63.5035 37.5007 64.3016 37.7881 65.1066C38.0756 65.9117 38.6148 66.5017 39.406 66.8765ZM32.6249 63.6636C33.416 64.0384 34.2141 64.0821 35.0192 63.7947C35.8243 63.5073 36.4142 62.968 36.7891 62.1769C37.1639 61.3857 37.2076 60.5876 36.9202 59.7826C36.6327 58.9775 36.0935 58.3875 35.3023 58.0127C34.5112 57.6379 33.7131 57.5942 32.908 57.8816C32.103 58.169 31.513 58.7083 31.1382 59.4994C30.7633 60.2906 30.7196 61.0886 31.0071 61.8937C31.2945 62.6988 31.8338 63.2887 32.6249 63.6636ZM25.3972 65.7746C26.1883 66.1494 26.9864 66.1931 27.7915 65.9057C28.5965 65.6183 29.1865 65.079 29.5613 64.2879C29.9362 63.4968 29.9799 62.6987 29.6924 61.8936C29.405 61.0885 28.8657 60.4986 28.0746 60.1237C27.2835 59.7489 26.4854 59.7052 25.6803 59.9926C24.8752 60.28 24.2853 60.8193 23.9104 61.6104C23.5356 62.4016 23.4919 63.1997 23.7793 64.0047C24.0668 64.8098 24.606 65.3998 25.3972 65.7746ZM34.5651 83.9574C35.4127 84.359 36.2778 84.3712 37.1604 83.9942C38.043 83.6171 38.6939 82.9853 39.1129 82.0989C39.577 81.1194 39.6486 80.1039 39.3276 79.0522C39.0066 78.0006 38.6864 76.9609 38.367 75.9331C38.0974 75.0904 37.9276 74.2317 37.8577 73.3572C37.7877 72.4826 37.6225 71.6141 37.3622 70.7518C37.1799 70.0657 36.8914 69.4331 36.4969 68.8541C36.1024 68.2751 35.5849 67.8338 34.9445 67.5304C34.304 67.227 33.6393 67.0965 32.9502 67.1391C32.2612 67.1816 31.5934 67.3496 30.947 67.643C30.134 67.9959 29.3597 68.4248 28.6241 68.9296C27.8886 69.4345 27.1052 69.8591 26.2741 70.2034C25.2757 70.6068 24.2683 71.0175 23.2519 71.4355C22.2356 71.8534 21.495 72.552 21.0301 73.5311C20.6107 74.4164 20.5343 75.3204 20.8011 76.243C21.0679 77.1656 21.6249 77.8272 22.4722 78.2277C23.4893 78.7096 24.5372 79.1023 25.6159 79.4058C26.6945 79.7093 27.7424 80.102 28.7596 80.5839C29.7767 81.0659 30.7443 81.6281 31.6623 82.2707C32.5803 82.9132 33.5479 83.4754 34.5651 83.9574Z" fill="black" fill-opacity="0.1"/>
</g>
<defs>
<clipPath id="clip0_358_63">
<rect width="39" height="39" fill="white" transform="translate(383.956 75.0311) rotate(154.648)"/>
</clipPath>
<clipPath id="clip1_358_63">
<rect width="33.6952" height="33.6952" fill="white" transform="translate(335.741 40.0286) rotate(154.648)"/>
</clipPath>
<clipPath id="clip2_358_63">
<rect width="34.7402" height="34.7402" fill="white" transform="matrix(-0.903695 -0.428178 -0.428178 0.903695 96.8765 31.3338)"/>
</clipPath>
<clipPath id="clip3_358_63">
<rect width="30.0148" height="30.0148" fill="white" transform="matrix(-0.903695 -0.428178 -0.428178 0.903695 53.9282 62.5132)"/>
</clipPath>
</defs>
</svg>
