<svg width="266" height="178" viewBox="0 0 266 178" fill="none" xmlns="http://www.w3.org/2000/svg">
<path fill-rule="evenodd" clip-rule="evenodd" d="M264.923 -53.0779C265.625 -50.6317 265.974 -47.9586 265.97 -45.0586C265.965 -42.1586 265.647 -39.1272 265.015 -35.9643C264.357 -32.7378 263.48 -29.3407 262.385 -25.773C261.252 -22.295 259.914 -18.6783 258.371 -14.9229C256.853 -11.2311 255.239 -7.39323 253.527 -3.40927C251.778 0.484938 249.958 4.46157 248.067 8.52063C246.176 12.5797 244.316 16.6518 242.489 20.737C240.571 24.8597 238.763 28.9897 237.062 33.1271C235.324 37.1747 233.726 41.2427 232.269 45.331C230.811 49.4194 229.532 53.4326 228.433 57.3708C227.334 61.3089 226.401 65.2038 225.635 69.0553C224.805 72.8808 224.109 76.65 223.548 80.3628C222.987 84.0757 222.541 87.6873 222.212 91.1977C221.793 94.7457 221.4 98.23 221.033 101.651C220.692 105.008 220.378 108.301 220.089 111.531C219.738 114.734 219.362 117.816 218.961 120.777C218.535 123.801 218.039 126.722 217.474 129.541C216.846 132.333 216.117 135.01 215.287 137.571C214.431 140.195 213.443 142.69 212.322 145.057C211.137 147.397 209.788 149.596 208.275 151.653C206.735 153.773 205.018 155.783 203.124 157.683C201.256 159.519 199.223 161.213 197.026 162.766C194.803 164.382 192.448 165.869 189.96 167.227C187.498 168.522 184.922 169.733 182.232 170.859C179.568 171.922 176.836 172.882 174.034 173.739C171.195 174.507 168.286 175.172 165.309 175.734C162.395 176.322 159.438 176.743 156.439 176.999C153.439 177.254 150.415 177.387 147.367 177.399C144.319 177.411 141.291 177.283 138.284 177.014C135.277 176.746 132.322 176.35 129.42 175.826C126.454 175.277 123.527 174.632 120.64 173.892C117.752 173.151 114.873 172.302 112 171.345C109.102 170.451 106.197 169.481 103.288 168.433C100.404 167.323 97.4756 166.231 94.5024 165.157C91.5553 164.02 88.5765 162.87 85.5659 161.707C82.5291 160.608 79.4289 159.483 76.2651 158.331C73.0752 157.243 69.8274 156.206 66.5217 155.219C63.1786 154.143 59.7515 153.18 56.2403 152.332C52.729 151.484 49.1151 150.706 45.3984 149.997C41.6817 149.287 37.8361 148.711 33.8616 148.268C29.8871 147.825 25.8098 147.451 21.6298 147.147C17.5395 146.805 13.3464 146.532 9.05058 146.329C4.81827 146.152 0.585945 145.975 -3.64637 145.798C-7.96835 145.658 -12.2324 145.468 -16.4386 145.227C-20.6447 144.987 -24.793 144.695 -28.8833 144.353C-32.9736 144.012 -36.9481 143.568 -40.8068 143.024C-44.6655 142.48 -48.3953 141.802 -51.9962 140.992C-55.5709 140.118 -58.9719 139.092 -62.1991 137.914C-65.389 136.826 -68.3977 135.478 -71.2251 133.87C-73.9891 132.287 -76.5083 130.47 -78.7828 128.419C-80.9938 126.395 -82.9918 124.122 -84.7769 121.603C-86.5246 119.173 -88.022 116.586 -89.269 113.841C-90.4899 111.033 -91.4867 108.131 -92.2593 105.135C-92.9423 102.101 -93.4141 99.0051 -93.6749 95.8473C-93.9357 92.6895 -93.9537 89.4827 -93.7289 86.2269C-93.504 82.971 -93.0177 79.7111 -92.2699 76.447C-91.5483 73.2466 -90.61 70.0608 -89.455 66.8897C-88.2365 63.7447 -86.7958 60.691 -85.1329 57.7286C-83.4699 54.7663 -81.5978 51.9271 -79.5165 49.2112C-77.4614 46.5588 -75.1205 44.0239 -72.4939 41.6065C-69.957 39.2266 -67.2557 36.9887 -64.3901 34.8927C-61.461 32.8228 -58.418 30.8369 -55.2611 28.9351C-52.1041 27.0333 -48.8333 25.2154 -45.4485 23.4817C-42.0637 21.7479 -38.6472 20.0271 -35.199 18.3194C-31.7507 16.6118 -28.3155 14.9359 -24.8934 13.2919C-21.3817 11.6103 -17.9334 9.90258 -14.5486 8.16878C-11.2274 6.40889 -7.95651 4.59109 -4.73608 2.71535C-1.51564 0.839603 1.55913 -1.13322 4.48823 -3.2031C7.41734 -5.273 10.169 -7.453 12.7433 -9.74313C15.3437 -12.0969 17.7481 -14.6057 19.9564 -17.2695C22.1385 -19.8696 24.1245 -22.6248 25.9145 -25.5349C27.7679 -28.4189 29.4309 -31.3813 30.9033 -34.4219C32.4393 -37.4364 33.8482 -40.5032 35.1302 -43.6221C36.4757 -46.7149 37.7128 -49.8151 38.8416 -52.9226C40.0339 -56.004 41.1683 -59.0347 42.2448 -62.0149C43.3212 -64.9951 44.422 -67.8537 45.547 -70.5907C46.6084 -73.3538 47.7259 -75.9823 48.8994 -78.4762C50.0729 -80.9701 51.3398 -83.2395 52.6999 -85.2847C54.0228 -87.4195 55.4576 -89.2851 57.0045 -90.8815C58.5513 -92.4778 60.255 -93.8237 62.1156 -94.9191C63.9761 -96.0145 65.9935 -96.8594 68.1677 -97.4539C70.2522 -98.0108 72.5198 -98.3809 74.9703 -98.5641C77.4209 -98.7473 80.0096 -98.725 82.7365 -98.497C85.426 -98.3588 88.2668 -98.0468 91.2589 -97.5611C94.2771 -97.139 97.4279 -96.588 100.711 -95.9081C103.931 -95.2542 107.31 -94.5352 110.847 -93.7509C114.385 -92.9666 118.049 -92.1301 121.84 -91.2413C125.632 -90.3527 129.544 -89.4884 133.579 -88.6487C137.613 -87.8091 141.75 -87.0387 145.989 -86.3378C150.266 -85.5471 154.659 -84.8576 159.168 -84.2693C163.65 -83.6174 168.204 -83.0479 172.828 -82.5608C177.49 -81.9839 182.133 -81.452 186.758 -80.9649C191.382 -80.4778 195.962 -79.9719 200.497 -79.4473C205.006 -78.859 209.406 -78.278 213.698 -77.7044C218.027 -77.041 222.19 -76.3343 226.187 -75.5844C230.184 -74.8344 233.975 -73.9457 237.561 -72.9183C241.084 -71.9169 244.369 -70.7898 247.417 -69.537C250.465 -68.2843 253.141 -66.8495 255.445 -65.2326C257.813 -63.5897 259.809 -61.7647 261.434 -59.7577C262.995 -57.7768 264.158 -55.5502 264.923 -53.0779Z" fill="#8E72FF"/>
</svg>
